<?xml version="1.0" encoding="UTF-8" standalone="no"?>
<!-- Created with Inkscape (http://www.inkscape.org/) -->

<svg
   width="64"
   height="64"
   viewBox="0 0 16.93312 16.93312"
   version="1.1"
   id="svg2151"
   inkscape:version="1.1.1 (3bf5ae0d25, 2021-09-20)"
   sodipodi:docname="portraits_male_white_average.svg"
   xmlns:inkscape="http://www.inkscape.org/namespaces/inkscape"
   xmlns:sodipodi="http://sodipodi.sourceforge.net/DTD/sodipodi-0.dtd"
   xmlns:xlink="http://www.w3.org/1999/xlink"
   xmlns="http://www.w3.org/2000/svg"
   xmlns:svg="http://www.w3.org/2000/svg"
   xmlns:rdf="http://www.w3.org/1999/02/22-rdf-syntax-ns#"
   xmlns:cc="http://creativecommons.org/ns#"
   xmlns:dc="http://purl.org/dc/elements/1.1/">
  <defs
     id="defs2145">
    <linearGradient
       id="skin-white-contour"
       inkscape:swatch="solid"
       gradientTransform="matrix(0.95130191,0,0,0.63792335,-131.43648,-147.61016)">
      <stop
         style="stop-color:#be5628;stop-opacity:1;"
         offset="0"
         id="stop3844" />
    </linearGradient>
    <linearGradient
       id="skin-white-5"
       inkscape:swatch="solid">
      <stop
         style="stop-color:#f0cbbc;stop-opacity:1;"
         offset="0"
         id="stop23973" />
    </linearGradient>
    <linearGradient
       id="skin-white-4"
       inkscape:swatch="solid"
       gradientTransform="matrix(0.42071816,0,0,0.43406938,-9.2026146,15.027124)">
      <stop
         style="stop-color:#eab9a4;stop-opacity:1;"
         offset="0"
         id="stop3928" />
    </linearGradient>
    <linearGradient
       id="skin-white-2"
       inkscape:swatch="solid"
       gradientTransform="matrix(3.8905355,0,0,7.2255227,70.021078,-343.20308)">
      <stop
         style="stop-color:#e29371;stop-opacity:1;"
         offset="0"
         id="stop14873" />
    </linearGradient>
    <linearGradient
       id="skin-white-3"
       inkscape:swatch="solid"
       gradientTransform="matrix(-0.03408479,0,0,0.09239784,-32.66402,183.43435)">
      <stop
         style="stop-color:#e3a78d;stop-opacity:1;"
         offset="0"
         id="stop3900" />
    </linearGradient>
    <linearGradient
       id="skin-white-1"
       inkscape:swatch="solid"
       gradientTransform="matrix(99.137266,0,0,95.361879,-5889.4815,108348.21)">
      <stop
         style="stop-color:#d97f59;stop-opacity:1;"
         offset="0"
         id="stop3872" />
    </linearGradient>
    <linearGradient
       id="lip-white-2"
       inkscape:swatch="solid"
       gradientTransform="rotate(-8.2977312,-23.36267,5.7295403)">
      <stop
         style="stop-color:#e35e64;stop-opacity:1;"
         offset="0"
         id="stop9179" />
    </linearGradient>
    <linearGradient
       id="eye-white"
       inkscape:swatch="solid"
       gradientTransform="translate(1.1523207,0.59391873)">
      <stop
         style="stop-color:#e3e5e8;stop-opacity:1;"
         offset="0"
         id="stop11082" />
    </linearGradient>
    <linearGradient
       id="hair-black-1"
       gradientTransform="translate(1.1523207,0.59391873)">
      <stop
         style="stop-color:#332d29;stop-opacity:1;"
         offset="0"
         id="stop16423" />
    </linearGradient>
  </defs>
  <sodipodi:namedview
     id="base"
     pagecolor="#ffffff"
     bordercolor="#666666"
     borderopacity="1.0"
     inkscape:pageopacity="1"
     inkscape:pageshadow="2"
     inkscape:zoom="8"
     inkscape:cx="10.8125"
     inkscape:cy="-50.4375"
     inkscape:document-units="px"
     inkscape:current-layer="layer2"
     showgrid="true"
     units="px"
     inkscape:pagecheckerboard="false"
     inkscape:window-width="1852"
     inkscape:window-height="1016"
     inkscape:window-x="0"
     inkscape:window-y="0"
     inkscape:window-maximized="1"
     inkscape:snap-global="true"
     showguides="true"
     inkscape:guide-bbox="true"
     inkscape:snap-nodes="true"
     inkscape:object-paths="true"
     inkscape:snap-intersection-paths="true"
     inkscape:snap-grids="false">
    <inkscape:grid
       type="xygrid"
       id="grid2696"
       empspacing="32"
       color="#3f3fff"
       opacity="0.24705882"
       empcolor="#3f3fff"
       empopacity="0.4" />
    <sodipodi:guide
       position="8.46656,25.39968"
       orientation="1,0"
       id="guide3414" />
  </sodipodi:namedview>
  <metadata
     id="metadata2148">
    <rdf:RDF>
      <cc:Work
         rdf:about="">
        <dc:format>image/svg+xml</dc:format>
        <dc:type
           rdf:resource="http://purl.org/dc/dcmitype/StillImage" />
      </cc:Work>
    </rdf:RDF>
  </metadata>
  <g
     inkscape:groupmode="layer"
     id="layer2"
     inkscape:label="main">
    <rect
       style="fill:#000000;stroke-width:0.211664"
       id="rect9071"
       width="4.2332802"
       height="4.2332802"
       x="-28.57464"
       y="-43.391121" />
    <rect
       style="fill:#000000;stroke-width:0.211664"
       id="rect9069"
       width="4.2332802"
       height="4.2332802"
       x="-33.866241"
       y="-43.391121" />
    <rect
       style="fill:#000000;stroke-width:0.211664"
       id="rect9067"
       width="4.2332802"
       height="4.2332802"
       x="-17.99144"
       y="-32.807919" />
    <rect
       style="fill:#000000;stroke-width:0.211664"
       id="rect9063"
       width="4.2332802"
       height="4.2332802"
       x="-28.57464"
       y="-32.807919" />
    <rect
       style="fill:#000000;stroke-width:0.211664"
       id="rect9065"
       width="4.2332802"
       height="4.2332802"
       x="-23.283041"
       y="-32.807919" />
    <rect
       style="fill:#000000;stroke-width:0.211664"
       id="rect9061"
       width="4.2332802"
       height="4.2332802"
       x="-33.866241"
       y="-32.807919" />
    <rect
       style="fill:#000000;stroke-width:0.211664"
       id="rect9057"
       width="4.2332802"
       height="4.2332802"
       x="-17.99144"
       y="-38.099522" />
    <rect
       style="fill:#000000;stroke-width:0.211664"
       id="rect9055"
       width="4.2332802"
       height="4.2332802"
       x="-23.283041"
       y="-38.099522" />
    <rect
       style="fill:#000000;stroke-width:0.211664"
       id="rect9053"
       width="4.2332802"
       height="4.2332802"
       x="-28.57464"
       y="-38.099522" />
    <rect
       style="fill:#000000;stroke-width:0.211664"
       id="rect8645"
       width="4.2332802"
       height="4.2332802"
       x="-33.866241"
       y="-38.099522" />
    <g
       id="use7667"
       transform="matrix(-1.0000069,0,0,0.99999845,28.966018,39.945)"
       style="display:inline">
      <g
         id="g3017"
         inkscape:label="Leg1 Male DL"
         transform="matrix(2,0,0,2,92.803838,-46.268317)">
        <path
           style="font-variation-settings:normal;opacity:1;vector-effect:none;fill:url(#skin-white-contour);fill-opacity:1;stroke:none;stroke-width:0.270024px;stroke-linecap:butt;stroke-linejoin:miter;stroke-miterlimit:4;stroke-dasharray:none;stroke-dashoffset:0;stroke-opacity:1;-inkscape-stroke:none;stop-color:#000000;stop-opacity:1"
           d="m -26.640888,14.340909 c -0.183268,0.330992 -0.303671,1.241817 -0.305337,1.70612 -0.0019,0.530687 0.187868,0.701329 0.360435,0.881298 0,0 -0.111138,0.628945 -0.06048,1.159007 0.05066,0.530061 0.435713,1.289664 0.463003,1.656102 0.0105,0.141049 -0.07898,0.291226 -0.173573,0.439366 -0.18063,0.282879 -0.744275,0.524031 -0.807793,0.71252 -0.103269,0.306449 0.159669,0.512904 0.484842,0.604802 0.325168,0.09189 1.761116,-0.488826 1.776142,-0.983365 0.01245,-0.409646 -0.106234,-0.364524 -0.167214,-0.743323 -0.06098,-0.378798 0.209623,-0.826732 0.321343,-1.619195 0.0063,-0.04483 0.01049,-0.08832 0.01273,-0.130593 0.0199,-0.375459 -0.06775,-1.116805 -0.1912,-1.389855 0.368968,-0.359715 0.442406,-1.817557 0.424834,-2.397816 z"
           id="path3001"
           sodipodi:nodetypes="cscsssssssssccc" />
        <path
           style="font-variation-settings:normal;opacity:1;vector-effect:none;fill:url(#skin-white-2);fill-opacity:1;stroke:none;stroke-width:0.26458px;stroke-linecap:butt;stroke-linejoin:miter;stroke-miterlimit:4;stroke-dasharray:none;stroke-dashoffset:0;stroke-opacity:1;-inkscape-stroke:none;stop-color:#000000;stop-opacity:1"
           d="m -25.126135,16.601334 c 0.07306,0.421356 0.222559,0.774975 0.223773,1.248971 0.0012,0.473996 -0.344911,1.293817 -0.353325,1.692624 -0.0084,0.398808 0.204845,0.606382 0.213162,0.836276 0.0083,0.229892 -1.113264,0.952518 -1.53652,0.903232 -0.423257,-0.04928 -0.491428,-0.33123 -0.412623,-0.442074 0.0788,-0.110845 0.825572,-0.338206 0.938486,-0.955287 0.09833,-0.5374 -0.423822,-1.499459 -0.428931,-1.906558 -0.0065,-0.452809 0.04259,-0.81425 0.08794,-1.076618 -0.201825,-0.262939 -0.334847,-0.339201 -0.366958,-0.791851 -0.01965,-0.277027 0.135361,-1.351615 0.281584,-1.661511 l 1.81677,-0.240962 c 0.05107,0.515782 -0.03128,2.053758 -0.463357,2.393758 z"
           id="path3003"
           sodipodi:nodetypes="cssssssccscccc" />
        <path
           id="path3005"
           style="font-variation-settings:normal;vector-effect:none;fill:url(#skin-white-3);fill-opacity:1;stroke:none;stroke-width:0.21557px;stroke-linecap:butt;stroke-linejoin:miter;stroke-miterlimit:4;stroke-dasharray:none;stroke-dashoffset:0;stroke-opacity:1;-inkscape-stroke:none;stop-color:#000000"
           d="m -25.682619,14.956792 c -0.07791,0.307751 -0.102726,0.380116 -0.136009,0.614862 -0.03146,0.221908 -0.0269,0.379246 0.128929,0.460364 0.08804,0.04583 0.244694,-0.08972 0.28116,-0.318435 0.06256,-0.392386 0.08073,-0.461179 0.05795,-0.71564 -0.02278,-0.254461 -0.03949,-0.326122 -0.113513,-0.344998 -0.08038,-0.0205 -0.14061,-0.0039 -0.218518,0.303847 z"
           sodipodi:nodetypes="sssssss" />
        <path
           id="path3007"
           style="font-variation-settings:normal;vector-effect:none;fill:url(#skin-white-1);fill-opacity:1;stroke:none;stroke-width:2px;stroke-linecap:butt;stroke-linejoin:miter;stroke-miterlimit:4;stroke-dasharray:none;stroke-dashoffset:0;stroke-opacity:1;-inkscape-stroke:none;stop-color:#000000"
           d="m 43.258872,-59.128849 c 0.03877,1.258924 0.225808,2.875023 0.21769,3.169865 -0.0802,2.999879 -1.590753,7.046925 -3.447265,8.601562 0.595207,2.464601 1.434609,8.821539 1.332031,11.21875 -0.102502,2.397218 -3.045892,12.074459 -2.417969,14.376953 0.627939,2.302487 1.21875,4.302735 1.21875,4.302735 0.141432,0.8886 -7.417076,5.123931 -9.072265,4.96875 -2.993288,-0.280672 -3.59375,-2.394532 -3.59375,-2.394532 0,0 -1.102436,1.514673 0.0039,2.515625 1.146224,1.036874 3.988475,2.070627 6.429688,0.980469 2.441204,-1.09009 8.166988,-4.247226 8.123046,-6.677734 -0.01285,-1.376174 -1.571432,-3.439748 -1.591796,-4.779297 -0.02041,-1.33955 2.521432,-12.138708 2.615234,-13.626953 0.197218,-3.128967 -1.785156,-10.046875 -1.785156,-10.046875 1.975841,-1.201663 3.779672,-5.937697 3.648437,-9.984375 -0.0122,-0.369151 0.01523,-2.415487 -0.09766,-3.341797 z"
           transform="matrix(0.13229,0,0,0.13229,-30.599995,22.762955)"
           sodipodi:nodetypes="ccccccccccccscccc" />
        <path
           id="path3009"
           style="font-variation-settings:normal;opacity:1;vector-effect:none;fill:url(#skin-white-1);fill-opacity:1;stroke:none;stroke-width:1px;stroke-linecap:butt;stroke-linejoin:miter;stroke-miterlimit:4;stroke-dasharray:none;stroke-dashoffset:0;stroke-opacity:1;-inkscape-stroke:none;stop-color:#000000;stop-opacity:1"
           d="m -98.426715,59.451843 c -0.701211,1.114204 -0.628017,1.780028 -0.24228,2.838623 -0.729225,0.445915 -1.165641,0.999932 -1.118101,1.787229 0.0664,1.099055 0.47413,1.265759 1.208475,1.565822 0.636816,0.260224 1.800081,-1.235564 1.800081,-1.235564 0,0 -1.315579,0.87658 -1.916517,0.681891 -0.351699,-0.113945 -0.745659,-0.513316 -0.744689,-0.893999 0.002,-0.627261 0.434596,-1.110818 0.945963,-1.545495 0.923218,1.345899 3.014886,0.03599 3.709739,-0.938613 -0.970277,0.827211 -3.069077,1.086054 -3.31777,0.519603 -0.413749,-0.94241 -0.529185,-1.730702 -0.324899,-2.779494 z"
           transform="scale(0.26458)"
           sodipodi:nodetypes="ccsscssccscc" />
        <path
           style="font-variation-settings:normal;opacity:1;vector-effect:none;fill:url(#skin-white-3);fill-opacity:1;stroke:none;stroke-width:0.209261px;stroke-linecap:butt;stroke-linejoin:miter;stroke-miterlimit:4;stroke-dasharray:none;stroke-dashoffset:0;stroke-opacity:1;-inkscape-stroke:none;stop-color:#000000;stop-opacity:1"
           d="m -26.142229,16.766089 c -0.09107,0.06653 -0.112689,0.114964 -0.09835,0.189766 0.01436,0.07481 0.05714,0.113573 0.134179,0.108883 0.07704,-0.0046 0.176577,-0.08173 0.183174,-0.14587 0.0066,-0.06414 -0.144825,-0.200332 -0.219007,-0.152779 z"
           id="path3011"
           sodipodi:nodetypes="ccccc" />
        <path
           id="path3013"
           style="font-variation-settings:normal;opacity:1;vector-effect:none;fill:url(#skin-white-3);fill-opacity:1;stroke:none;stroke-width:0.229564px;stroke-linecap:butt;stroke-linejoin:miter;stroke-miterlimit:4;stroke-dasharray:none;stroke-dashoffset:0;stroke-opacity:1;-inkscape-stroke:none;stop-color:#000000;stop-opacity:1"
           d="m -26.400052,15.101092 c -0.08628,0.08458 -0.256919,0.401544 -0.254224,0.645647 0.0027,0.244104 0.03272,0.513782 0.120162,0.591395 0.07119,0.06319 0.150788,-0.24798 0.162504,-0.502718 0.0135,-0.293448 0.182526,-0.941139 -0.02844,-0.734324 z"
           sodipodi:nodetypes="scsss" />
        <path
           style="font-variation-settings:normal;opacity:1;vector-effect:none;fill:url(#skin-white-3);fill-opacity:1;stroke:none;stroke-width:0.26458px;stroke-linecap:butt;stroke-linejoin:miter;stroke-miterlimit:4;stroke-dasharray:none;stroke-dashoffset:0;stroke-opacity:1;-inkscape-stroke:none;stop-color:#000000;stop-opacity:1"
           d="m -26.21057,17.854273 c -0.04399,0.321521 0.123893,0.891117 0.208512,1.062099 0.08462,0.170982 0.252662,-0.756178 0.234672,-0.960459 -0.01799,-0.204281 -0.437694,-0.507682 -0.443184,-0.10164 z"
           id="path3015" />
      </g>
      <g
         id="g3035"
         inkscape:label="Arm1 Male DL"
         transform="matrix(2,0,0,2,85.733956,-49.900228)">
        <path
           style="font-variation-settings:normal;display:inline;opacity:1;vector-effect:none;fill:url(#skin-white-contour);fill-opacity:1;stroke:none;stroke-width:0.275393px;stroke-linecap:butt;stroke-linejoin:miter;stroke-miterlimit:4;stroke-dasharray:none;stroke-dashoffset:0;stroke-opacity:1;-inkscape-stroke:none;stop-color:#000000;stop-opacity:1"
           d="m -24.145768,13.600515 c 0,0 -0.198641,0.401448 -0.133254,0.750201 0.06539,0.348754 0.122178,0.776255 0.154755,1.004096 0.05141,0.359617 -0.113565,0.315982 -0.134631,0.632967 -0.02553,0.38415 0.378729,0.785514 0.886567,0.536905 0.317572,-0.155465 0.475174,-0.379982 0.480363,-0.712126 0.0024,-0.147817 -0.14533,-0.338718 -0.117355,-0.549545 0.05749,-0.433216 0.280155,-1.074204 0.209095,-1.374742 -0.05927,-0.250712 -0.12251,-0.428342 -0.12251,-0.428342 -0.05042,-0.573291 0.336506,-0.749697 0.293535,-1.316739 -0.01397,-0.184412 -0.177936,-0.255383 -0.173072,-0.509388 0.07016,-0.158285 0.291247,-0.294648 0.247317,-0.593028 -0.06941,-0.471359 -0.311187,-0.614356 -0.490434,-0.706592 -0.4568,-0.235059 -0.810241,-0.109359 -1.123184,0.161538 -0.326893,0.282973 -0.352827,0.753734 -0.210157,1.105195 0.136216,0.335563 0.0014,0.274848 -0.0385,0.997248 -0.03707,0.671075 0.271466,1.002352 0.271466,1.002352 z"
           id="path3019"
           sodipodi:nodetypes="cssssssscscssssscc" />
        <path
           style="font-variation-settings:normal;opacity:1;vector-effect:none;fill:url(#skin-white-1);fill-opacity:1;stroke:none;stroke-width:0.275393px;stroke-linecap:butt;stroke-linejoin:miter;stroke-miterlimit:4;stroke-dasharray:none;stroke-dashoffset:0;stroke-opacity:1;-inkscape-stroke:none;stop-color:#000000;stop-opacity:1"
           d="m -23.170286,15.416843 c 0.113032,0.274473 0.143237,0.215777 0.148214,0.424962 0.005,0.209231 -0.09012,0.422485 -0.510801,0.611371 -0.324659,0.145773 -0.599725,-0.285475 -0.595128,-0.412852 0.0046,-0.127376 0.223736,-0.461299 0.165008,-0.677334 -0.07003,-0.381203 -0.146341,-0.839714 -0.173004,-1.08315 -0.02667,-0.243435 0.178742,-0.666793 0.178742,-0.666793 0,0 -0.327465,-0.281529 -0.332153,-0.925609 -0.0036,-0.50107 0.175139,-0.67616 0.164077,-0.952944 -0.127917,-0.302865 -0.166141,-0.370397 -0.147878,-0.671734 0.01449,-0.239074 0.281848,-0.780293 0.846467,-0.716116 0.443004,0.05035 0.68132,0.353922 0.724524,0.740804 0.03289,0.294531 -0.33262,0.47913 -0.287987,0.566377 0.110607,0.307471 0.237192,0.408771 0.201461,0.730563 -0.03551,0.319801 -0.36805,0.794877 -0.355167,1.116389 0,0 0.208953,0.332795 0.193522,0.5953 -0.01543,0.262506 -0.231741,1.045741 -0.219897,1.320766 z"
           id="path3021"
           sodipodi:nodetypes="cssccscscssscscsc" />
        <path
           style="font-variation-settings:normal;opacity:1;vector-effect:none;fill:url(#skin-white-2);fill-opacity:1;stroke:none;stroke-width:0.26458px;stroke-linecap:butt;stroke-linejoin:miter;stroke-miterlimit:4;stroke-dasharray:none;stroke-dashoffset:0;stroke-opacity:1;-inkscape-stroke:none;stop-color:#000000;stop-opacity:1"
           d="m -23.453856,10.354492 c -0.431513,0 -0.547071,0.177223 -0.641362,0.313512 -0.215305,0.3112 -0.226878,0.57319 -0.05628,0.730461 0.153812,0.141835 0.433611,0.421892 0.871192,0.262246 0.437581,-0.159645 0.587091,-0.624776 0.503871,-0.850244 -0.08615,-0.233413 -0.39926,-0.455975 -0.677373,-0.455975 z"
           id="path3023"
           sodipodi:nodetypes="sssssss" />
        <path
           style="font-variation-settings:normal;opacity:1;vector-effect:none;fill:url(#skin-white-3);fill-opacity:1;stroke:none;stroke-width:0.284118px;stroke-linecap:butt;stroke-linejoin:miter;stroke-miterlimit:4;stroke-dasharray:none;stroke-dashoffset:0;stroke-opacity:1;-inkscape-stroke:none;stop-color:#000000;stop-opacity:1"
           d="m -24.097576,10.715284 c 0.151737,-0.246481 0.300691,-0.299497 0.457872,-0.308243 0.157181,-0.0086 0.439199,0.02578 0.502232,0.282335 0.05794,0.235904 -0.14356,0.211654 -0.293872,0.323386 -0.183839,0.136653 -0.210365,0.362037 -0.569276,0.194344 -0.198791,-0.09289 -0.184203,-0.3501 -0.09695,-0.491822 z"
           id="path3025"
           sodipodi:nodetypes="ssssss" />
        <path
           style="font-variation-settings:normal;opacity:1;vector-effect:none;fill:url(#skin-white-2);fill-opacity:1;stroke:none;stroke-width:0.284085px;stroke-linecap:butt;stroke-linejoin:miter;stroke-miterlimit:4;stroke-dasharray:none;stroke-dashoffset:0;stroke-opacity:1;-inkscape-stroke:none;stop-color:#000000;stop-opacity:1"
           d="m -23.853109,11.841168 c 0.114574,0.0019 0.434058,0.0026 0.611645,-0.07256 0.172989,0.129023 0.283347,0.326049 0.207857,0.652128 -0.134917,0.582774 -0.423256,1.113015 -0.673789,1.159654 -0.250535,0.04664 -0.485669,-0.785001 -0.466127,-1.045148 0.01954,-0.260146 0.09918,-0.721435 0.320414,-0.694069 z"
           id="path3027"
           sodipodi:nodetypes="ccssscc" />
        <path
           style="font-variation-settings:normal;opacity:1;vector-effect:none;fill:url(#skin-white-3);fill-opacity:1;stroke:none;stroke-width:0.255485px;stroke-linecap:butt;stroke-linejoin:miter;stroke-miterlimit:4;stroke-dasharray:none;stroke-dashoffset:0;stroke-opacity:1;-inkscape-stroke:none;stop-color:#000000;stop-opacity:1"
           d="m -23.75216,11.996973 c -0.201786,0.01015 -0.242486,0.258615 -0.271613,0.439076 -0.02913,0.18046 0.05775,0.549817 0.147901,0.593976 0.09016,0.04416 0.312025,-0.284244 0.342632,-0.479998 0.03061,-0.195755 0.0039,-0.564263 -0.21892,-0.553054 z"
           id="path3029"
           sodipodi:nodetypes="sssss" />
        <path
           style="font-variation-settings:normal;opacity:1;vector-effect:none;fill:url(#skin-white-2);fill-opacity:1;stroke:none;stroke-width:0.26458px;stroke-linecap:butt;stroke-linejoin:miter;stroke-miterlimit:4;stroke-dasharray:none;stroke-dashoffset:0;stroke-opacity:1;-inkscape-stroke:none;stop-color:#000000;stop-opacity:1"
           d="m -23.823907,13.777147 c 0.165916,0.07146 0.556463,-0.114394 0.556463,-0.114394 0,0 0.167491,0.233104 0.110489,0.488178 -0.057,0.255074 -0.240253,1.0192 -0.185031,1.242941 0.05522,0.223741 0.142551,0.376992 0.102998,0.533648 -0.05338,0.211407 -0.310301,0.41715 -0.560163,0.254024 -0.142168,-0.09282 -0.18494,-0.224929 -0.148468,-0.361269 0.03647,-0.136341 0.118276,-0.241555 0.102701,-0.424256 -0.01558,-0.182702 -0.141662,-0.752616 -0.160572,-0.925177 -0.01891,-0.172562 -0.02405,-0.473745 0.181583,-0.693695 z"
           id="path3031"
           sodipodi:nodetypes="ccsssssssc" />
        <path
           style="font-variation-settings:normal;opacity:1;vector-effect:none;fill:url(#skin-white-3);fill-opacity:1;stroke:none;stroke-width:0.26458px;stroke-linecap:butt;stroke-linejoin:miter;stroke-miterlimit:4;stroke-dasharray:none;stroke-dashoffset:0;stroke-opacity:1;-inkscape-stroke:none;stop-color:#000000;stop-opacity:1"
           d="m -23.745894,14.051724 c 0.132498,0.04417 -0.03222,0.648111 0.02368,0.836431 0.05591,0.188319 0.214377,-0.62774 0.204466,-0.814872 -0.0099,-0.187132 -0.314734,-0.05042 -0.228149,-0.02156 z"
           id="path3033"
           sodipodi:nodetypes="sccss" />
      </g>
      <g
         id="g3055"
         inkscape:label="Leg2 Male DL"
         transform="matrix(2,0,0,2,94.562979,-45.296711)">
        <path
           style="font-variation-settings:normal;opacity:1;vector-effect:none;fill:url(#skin-white-contour);fill-opacity:1;stroke:none;stroke-width:0.270024px;stroke-linecap:butt;stroke-linejoin:miter;stroke-miterlimit:4;stroke-dasharray:none;stroke-dashoffset:0;stroke-opacity:1;-inkscape-stroke:none;stop-color:#000000;stop-opacity:1"
           d="m -26.770949,14.504587 c -0.183268,0.330992 -0.17361,1.078139 -0.175276,1.542442 -0.0019,0.530687 0.187868,0.701329 0.360435,0.881298 0,0 -0.111138,0.628945 -0.06048,1.159007 0.05066,0.530061 0.435713,1.289664 0.463003,1.656102 0.0105,0.141049 -0.07898,0.291226 -0.173573,0.439366 -0.18063,0.282879 -0.744275,0.524031 -0.807793,0.71252 -0.103269,0.306449 0.159669,0.512904 0.484842,0.604802 0.325168,0.09189 1.761116,-0.488826 1.776142,-0.983365 0.01245,-0.409646 -0.106234,-0.364524 -0.167214,-0.743323 -0.06098,-0.378798 0.209623,-0.826732 0.321343,-1.619195 0.0063,-0.04483 0.01049,-0.08832 0.01273,-0.130593 0.0199,-0.375459 -0.06775,-1.116805 -0.1912,-1.389855 0.167116,-0.162925 0.3673,-0.347283 0.433724,-0.984664 0.04668,-0.44795 0.328759,-1.069446 0.280059,-1.564275 -0.03499,-0.355602 -0.172416,-0.677633 -0.176431,-0.81037 l -1.953872,-0.07008 c -0.392682,-0.01408 -0.352771,1.082047 -0.426406,1.300179 z"
           id="path3037"
           sodipodi:nodetypes="cscssssssssscsscscc" />
        <path
           style="font-variation-settings:normal;opacity:1;vector-effect:none;fill:url(#skin-white-2);fill-opacity:1;stroke:none;stroke-width:0.26458px;stroke-linecap:butt;stroke-linejoin:miter;stroke-miterlimit:4;stroke-dasharray:none;stroke-dashoffset:0;stroke-opacity:1;-inkscape-stroke:none;stop-color:#000000;stop-opacity:1"
           d="m -25.126135,16.601334 c 0.07306,0.421356 0.222559,0.774975 0.223773,1.248971 0.0012,0.473996 -0.344911,1.293817 -0.353325,1.692624 -0.0084,0.398808 0.204845,0.606382 0.213162,0.836276 0.0083,0.229892 -1.113264,0.952518 -1.53652,0.903232 -0.423257,-0.04928 -0.491428,-0.33123 -0.412623,-0.442074 0.0788,-0.110845 0.825572,-0.338206 0.938486,-0.955287 0.09833,-0.5374 -0.423822,-1.499459 -0.428931,-1.906558 -0.0065,-0.452809 0.04259,-0.81425 0.08794,-1.076618 -0.201825,-0.262939 -0.334847,-0.339201 -0.366958,-0.791851 -0.01965,-0.277027 0.0053,-1.187937 0.151523,-1.497833 0.08388,-0.299103 0.211288,-1.195739 0.432535,-1.371188 l 1.64503,0.107517 c 0.05734,0.248284 0.163798,0.727104 0.125347,1.018576 -0.04269,0.323585 -0.19682,0.607301 -0.264392,0.910666 -0.141976,0.637397 -0.260768,1.170672 -0.455042,1.323546 z"
           id="path3039"
           sodipodi:nodetypes="cssssssccscccsscc" />
        <path
           style="font-variation-settings:normal;vector-effect:none;fill:url(#skin-white-3);fill-opacity:1;stroke:none;stroke-width:0.13229px;stroke-linecap:butt;stroke-linejoin:miter;stroke-miterlimit:4;stroke-dasharray:none;stroke-dashoffset:0;stroke-opacity:1;-inkscape-stroke:none;stop-color:#000000"
           d="m -25.456645,14.218109 c -0.0044,0.113936 0.240675,0.320139 0.409577,0.189959 0.168901,-0.130181 0.06059,-0.504815 0.06059,-0.504815 z"
           id="path3041"
           sodipodi:nodetypes="cscc" />
        <path
           id="path3043"
           style="font-variation-settings:normal;vector-effect:none;fill:url(#skin-white-3);fill-opacity:1;stroke:none;stroke-width:0.238614px;stroke-linecap:butt;stroke-linejoin:miter;stroke-miterlimit:4;stroke-dasharray:none;stroke-dashoffset:0;stroke-opacity:1;-inkscape-stroke:none;stop-color:#000000"
           d="m -25.815658,15.558516 c -0.0375,0.228121 -0.03206,0.389864 0.153663,0.473254 0.104931,0.04711 0.291638,-0.09223 0.3351,-0.327352 0.07456,-0.403372 0.09622,-0.386966 0.06907,-0.648551 -0.02715,-0.261586 -0.04707,-0.335254 -0.13529,-0.354658 -0.0958,-0.02108 -0.193428,0.133553 -0.260447,0.312355 -0.08785,0.234363 -0.122428,0.303633 -0.162096,0.544952 z"
           sodipodi:nodetypes="sssssss" />
        <path
           id="path3045"
           style="font-variation-settings:normal;vector-effect:none;fill:url(#skin-white-1);fill-opacity:1;stroke:none;stroke-width:2px;stroke-linecap:butt;stroke-linejoin:miter;stroke-miterlimit:4;stroke-dasharray:none;stroke-dashoffset:0;stroke-opacity:1;-inkscape-stroke:none;stop-color:#000000"
           d="m 43.888036,-69.517168 c 0.01592,0.517093 0.645478,1.525658 0.857331,4.390865 0.303929,4.110478 -1.264021,8.993581 -1.268805,9.167319 -0.0802,2.999879 -1.590753,7.046925 -3.447265,8.601562 0.595207,2.464601 1.434609,8.821539 1.332031,11.21875 -0.102502,2.397218 -3.045892,12.074459 -2.417969,14.376953 0.627939,2.302487 1.21875,4.302735 1.21875,4.302735 0.141432,0.8886 -7.417076,5.123931 -9.072265,4.96875 -2.993288,-0.280672 -3.59375,-2.394532 -3.59375,-2.394532 0,0 -1.102436,1.514673 0.0039,2.515625 1.146224,1.036874 3.988475,2.070627 6.429688,0.980469 2.441204,-1.09009 8.166988,-4.247226 8.123046,-6.677734 -0.01285,-1.376174 -1.571432,-3.439748 -1.591796,-4.779297 -0.02041,-1.33955 2.521432,-12.138708 2.615234,-13.626953 0.197218,-3.128967 -1.785156,-10.046875 -1.785156,-10.046875 1.975841,-1.201663 3.779672,-5.937697 3.648437,-9.984375 -0.007,-0.212328 2.350205,-4.641816 2.095256,-8.745264 -0.1883,-3.030759 -0.99492,-6.289823 -1.042878,-6.683339 z"
           transform="matrix(0.13229,0,0,0.13229,-30.599995,22.762955)"
           sodipodi:nodetypes="cscccccccccccsccscc" />
        <path
           id="path3047"
           style="font-variation-settings:normal;opacity:1;vector-effect:none;fill:url(#skin-white-1);fill-opacity:1;stroke:none;stroke-width:1px;stroke-linecap:butt;stroke-linejoin:miter;stroke-miterlimit:4;stroke-dasharray:none;stroke-dashoffset:0;stroke-opacity:1;-inkscape-stroke:none;stop-color:#000000;stop-opacity:1"
           d="m -98.426715,59.451843 c -0.701211,1.114204 -0.628017,1.780028 -0.24228,2.838623 -0.729225,0.445915 -1.165641,0.999932 -1.118101,1.787229 0.0664,1.099055 0.47413,1.265759 1.208475,1.565822 0.636816,0.260224 1.800081,-1.235564 1.800081,-1.235564 0,0 -1.315579,0.87658 -1.916517,0.681891 -0.351699,-0.113945 -0.745659,-0.513316 -0.744689,-0.893999 0.002,-0.627261 0.434596,-1.110818 0.945963,-1.545495 0.923218,1.345899 3.014886,0.03599 3.709739,-0.938613 -0.970277,0.827211 -3.069077,1.086054 -3.31777,0.519603 -0.413749,-0.94241 -0.529185,-1.730702 -0.324899,-2.779494 z"
           transform="scale(0.26458)"
           sodipodi:nodetypes="ccsscssccscc" />
        <path
           style="font-variation-settings:normal;opacity:1;vector-effect:none;fill:url(#skin-white-3);fill-opacity:1;stroke:none;stroke-width:0.209261px;stroke-linecap:butt;stroke-linejoin:miter;stroke-miterlimit:4;stroke-dasharray:none;stroke-dashoffset:0;stroke-opacity:1;-inkscape-stroke:none;stop-color:#000000;stop-opacity:1"
           d="m -26.142229,16.766089 c -0.09107,0.06653 -0.112689,0.114964 -0.09835,0.189766 0.01436,0.07481 0.05714,0.113573 0.134179,0.108883 0.07704,-0.0046 0.176577,-0.08173 0.183174,-0.14587 0.0066,-0.06414 -0.144825,-0.200332 -0.219007,-0.152779 z"
           id="path3049"
           sodipodi:nodetypes="ccccc" />
        <path
           id="path3051"
           style="font-variation-settings:normal;opacity:1;vector-effect:none;fill:url(#skin-white-3);fill-opacity:1;stroke:none;stroke-width:0.229564px;stroke-linecap:butt;stroke-linejoin:miter;stroke-miterlimit:4;stroke-dasharray:none;stroke-dashoffset:0;stroke-opacity:1;-inkscape-stroke:none;stop-color:#000000;stop-opacity:1"
           d="m -26.400052,15.101092 c -0.08628,0.08458 -0.256919,0.401544 -0.254224,0.645647 0.0027,0.244104 0.03272,0.513782 0.120162,0.591395 0.07119,0.06319 0.150788,-0.24798 0.162504,-0.502718 0.0135,-0.293448 0.182526,-0.941139 -0.02844,-0.734324 z"
           sodipodi:nodetypes="scsss" />
        <path
           style="font-variation-settings:normal;opacity:1;vector-effect:none;fill:url(#skin-white-3);fill-opacity:1;stroke:none;stroke-width:0.26458px;stroke-linecap:butt;stroke-linejoin:miter;stroke-miterlimit:4;stroke-dasharray:none;stroke-dashoffset:0;stroke-opacity:1;-inkscape-stroke:none;stop-color:#000000;stop-opacity:1"
           d="m -26.21057,17.854273 c -0.04399,0.321521 0.123893,0.891117 0.208512,1.062099 0.08462,0.170982 0.252662,-0.756178 0.234672,-0.960459 -0.01799,-0.204281 -0.437694,-0.507682 -0.443184,-0.10164 z"
           id="path3053" />
      </g>
      <g
         id="g3063"
         inkscape:label="Male Crotch"
         style="opacity:1"
         transform="matrix(1.2718431,0,0,1.2718431,73.816772,-35.045517)">
        <path
           style="font-variation-settings:normal;vector-effect:none;fill:url(#skin-white-1);fill-opacity:1;stroke:none;stroke-width:0.380639px;stroke-linecap:butt;stroke-linejoin:miter;stroke-miterlimit:4;stroke-dasharray:none;stroke-dashoffset:0;stroke-opacity:1;-inkscape-stroke:none;stop-color:#000000"
           d="m -26.486293,14.07201 c 0.324743,0.733767 0.156945,1.306573 0.681574,1.420497 0.524628,0.113921 1.069544,-1.030579 1.001583,-1.014162 -0.972615,0.23494 -1.683157,-0.406335 -1.683157,-0.406335 z"
           id="path3057"
           sodipodi:nodetypes="ccsc" />
        <path
           style="font-variation-settings:normal;vector-effect:none;fill:url(#skin-white-2);fill-opacity:1;stroke:none;stroke-width:0.320687px;stroke-linecap:butt;stroke-linejoin:miter;stroke-miterlimit:4;stroke-dasharray:none;stroke-dashoffset:0;stroke-opacity:1;-inkscape-stroke:none;stop-color:#000000"
           d="m -26.286137,14.165597 c 0.119163,0.339629 0.150417,1.063644 0.44432,1.126471 0.293901,0.06282 0.767376,-0.686212 0.859213,-0.81558 0.09183,-0.129374 -0.924438,-0.103048 -1.303533,-0.310891 z"
           id="path3059"
           sodipodi:nodetypes="cscc" />
        <path
           style="font-variation-settings:normal;opacity:1;vector-effect:none;fill:url(#skin-white-3);fill-opacity:1;stroke:none;stroke-width:0.26458px;stroke-linecap:butt;stroke-linejoin:miter;stroke-miterlimit:4;stroke-dasharray:none;stroke-dashoffset:0;stroke-opacity:1;-inkscape-stroke:none;stop-color:#000000;stop-opacity:1"
           d="m -25.857432,14.853356 c -0.09834,0.05593 -0.14712,0.132744 -0.124648,0.221126 0.02247,0.08838 0.02859,0.129238 0.113161,0.143169 0.08457,0.01393 0.144551,-0.05251 0.147063,-0.166715 0.0025,-0.114211 -0.06013,-0.240493 -0.135576,-0.19758 z"
           id="path3061"
           sodipodi:nodetypes="sssss" />
      </g>
      <g
         id="g3133"
         transform="matrix(2,0,0,2,93.123349,-45.733776)"
         inkscape:label="Torso Male DL"
         style="opacity:1">
        <path
           style="font-variation-settings:normal;display:inline;opacity:1;vector-effect:none;fill:url(#skin-white-contour);fill-opacity:1;stroke:none;stroke-width:0.269394px;stroke-linecap:butt;stroke-linejoin:miter;stroke-miterlimit:4;stroke-dasharray:none;stroke-dashoffset:0;stroke-opacity:1;-inkscape-stroke:none;stop-color:#000000;stop-opacity:1"
           d="m -28.082589,273.87894 c -0.112363,-0.54862 -0.07361,-0.97526 0.193276,-1.32812 0.03578,-0.0473 0.163557,-0.47053 0.236489,-0.54614 0.276284,-0.28641 0.9878,-0.55056 1.267136,-0.47332 0.172292,0.0476 0.401992,0.0166 0.429632,-0.21056 0.06948,-0.571 0.827201,-0.51417 1.138777,-0.41056 0.496755,0.16519 0.477439,0.44667 0.476504,0.67033 -0.0015,0.35579 0.223955,0.5338 0.346905,0.68194 0.158469,0.19094 0.235985,0.41523 0.425558,0.53571 0.224922,0.14294 0.573549,0.3767 0.658301,0.82409 0.09541,0.33922 0.0403,0.64402 -0.135686,0.90139 0.175029,0.50534 0.02392,1.1383 -0.277516,1.34627 -0.05237,0.35537 -0.334307,0.64594 -0.331747,0.73689 0.0038,0.13478 -0.852737,0.78286 -1.229924,0.95944 -0.416074,0.19478 -0.787415,0.25261 -0.963075,0.22661 -0.356767,-0.053 -0.922884,-0.51418 -0.963256,-0.60437 -0.134401,-0.30027 -0.395148,-0.54838 -0.391667,-1.19455 -0.137741,-0.25553 -0.06746,-0.33276 -0.01815,-0.52597 -0.118731,-0.23107 -0.135466,-0.50197 -0.04469,-0.7153 -0.53525,-0.11052 -0.762608,-0.60883 -0.816867,-0.87376 z"
           id="path3065"
           sodipodi:nodetypes="ssssssssscccsssscccss"
           transform="translate(0,-263.13333)" />
        <path
           style="font-variation-settings:normal;display:inline;opacity:1;vector-effect:none;fill:url(#skin-white-2);fill-opacity:1;stroke:none;stroke-width:0.250511px;stroke-linecap:butt;stroke-linejoin:miter;stroke-miterlimit:4;stroke-dasharray:none;stroke-dashoffset:0;stroke-opacity:1;-inkscape-stroke:none;stop-color:#000000;stop-opacity:1"
           d="m -27.056544,11.694406 c -0.118038,0.0494 -0.226728,0.346174 -0.03623,0.575574 -0.04619,0.15008 -0.107306,0.29025 0.06464,0.52283 -0.07339,0.7374 0.220914,0.92833 0.383498,1.37747 0.09421,0.26027 0.713347,0.52248 1.079512,0.57944 0.195403,0.0304 0.742307,-0.287064 1.107406,-0.484134 0.259661,-0.14016 0.637508,-0.402691 0.630496,-0.588351 -0.0096,-0.255429 0.164072,-0.700045 0.202472,-0.977641 0.431872,-0.54568 0.443053,-0.951757 0.374223,-1.268131 0.174923,-0.311514 0.329601,-0.647309 0.167638,-0.950523 -0.203464,-0.380909 -0.233335,-0.440773 -0.615241,-0.6773957 -0.181763,-0.1126173 -0.320223,-0.3539486 -0.501681,-0.5874148 -0.08575,-0.1103291 -0.251094,-0.173595 -0.330742,-0.2826396 -0.118314,-0.1619795 -0.13748,-0.3676492 -0.153492,-0.5148543 -0.02382,-0.2190076 -0.62826,-0.4255845 -0.884602,-0.1143447 -0.248805,0.3020892 -0.61531,0.3193562 -0.893959,0.1997493 -0.110076,-0.047249 -0.135976,-0.08249 -0.292186,-0.07664 -0.519884,0.066 -0.938683,0.3017 -1.05009,0.74132 0.07771,-0.0775 0.204973,-0.0473 0.167678,0.10403 -0.0711,0.10067 -0.175376,0.28718 -0.202589,0.35866 -0.141653,0.3720598 -0.133637,0.5789008 -0.07353,1.0663398 0.0492,0.399001 0.267854,0.717851 0.856785,0.996616 z"
           id="path3067"
           sodipodi:nodetypes="cccssssccssssssscccsscc" />
        <path
           id="path3069"
           style="font-variation-settings:normal;vector-effect:none;fill:url(#skin-white-3);fill-opacity:1;stroke:none;stroke-width:0.253084px;stroke-linecap:butt;stroke-linejoin:miter;stroke-miterlimit:4;stroke-dasharray:none;stroke-dashoffset:0;stroke-opacity:1;-inkscape-stroke:none;stop-color:#000000"
           d="m -24.482263,13.587765 c -0.184995,0.1447 -0.407437,0.186658 -0.571912,0.192904 -0.117662,0.0044 -0.192114,0.11975 0.03356,0.213088 0.225677,0.09334 0.283689,0.447035 0.283689,0.447035 0,0 0.33016,-0.150668 0.485235,-0.316515 -0.07225,-0.109741 -0.08009,-0.258287 -0.09497,-0.35022 -0.03556,-0.219684 -0.07177,-0.236221 -0.135603,-0.186292 z"
           sodipodi:nodetypes="scsccss" />
        <path
           style="font-variation-settings:normal;display:inline;opacity:1;vector-effect:none;fill:url(#skin-white-1);fill-opacity:1;stroke:none;stroke-width:0.26458px;stroke-linecap:butt;stroke-linejoin:miter;stroke-miterlimit:4;stroke-dasharray:none;stroke-dashoffset:0;stroke-opacity:1;-inkscape-stroke:none;stop-color:#000000;stop-opacity:1"
           d="m -27.918142,273.75476 c 0.306064,0.34227 1.063267,1.16039 1.119698,0.20346 0.01592,-0.26997 0.07594,-0.59667 0.553925,-0.90907 -0.286762,0.36894 -0.351623,0.75874 -0.356255,1.03734 -0.0047,0.28038 0.03262,0.60482 0.393573,0.75363 0.708156,0.29193 1.343835,0.12521 1.558263,-0.58101 0.03193,-0.10516 0.05356,-0.19621 0.168266,-0.31713 0.04588,0.12576 0.04936,0.21726 0.02665,0.35204 -0.03561,0.21135 -0.07088,0.46588 -0.17665,0.59925 -0.331779,0.41838 -0.77137,0.44552 -1.196337,0.42007 -0.405151,-0.0243 -0.70926,-0.23648 -0.889041,-0.50887 -0.527307,-0.0879 -1.152014,-0.46842 -1.20209,-1.04971 z"
           id="path3071"
           transform="translate(0,-263.13333)"
           sodipodi:nodetypes="cscssscsssccc" />
        <path
           id="path3073"
           style="font-variation-settings:normal;opacity:1;vector-effect:none;fill:url(#skin-white-1);fill-opacity:1;stroke:none;stroke-width:1px;stroke-linecap:butt;stroke-linejoin:miter;stroke-miterlimit:4;stroke-dasharray:none;stroke-dashoffset:0;stroke-opacity:1;-inkscape-stroke:none;stop-color:#000000;stop-opacity:1"
           d="m -92.353516,43.529297 c 0,0 -0.50757,2.317442 -0.128906,1.927734 0.378661,-0.3897 1.298208,-0.22603 1.638672,0.226563 0.216631,0.287981 0.140241,0.611462 0.04687,0.908203 -0.677669,2.15388 -2.317017,3.359256 -3.074219,3.666015 -0.540282,0.218883 -2.205504,0.684933 -2.451172,0.16211 -0.545338,-1.160572 -1.009762,-1.885629 -2.089843,-2.408203 -1.397942,-0.676404 -2.334316,1.069357 -1.937516,1.809839 -0.54295,0.506321 -0.3526,1.611845 -0.11997,2.140447 -0.4343,0.756145 -0.24441,1.61013 -0.13253,2.061671 0.30867,1.245735 2.166199,2.772452 4.660658,2.84345 0.407735,0.01161 0.525883,-1.222752 0.346713,-2.50758 -0.05532,-0.396728 -0.479058,-0.558436 -0.503155,-0.737939 -0.01982,-0.147619 0.123886,-0.299952 0.256568,-0.413896 0.334944,-0.28764 1.110049,-0.293039 1.729739,-0.462624 0.629908,-0.172382 0.862551,-0.292958 1.811378,-0.786917 0.850601,-0.442823 1.414375,1.472222 1.514813,2.268071 0.386024,-0.158225 0.907312,-0.827219 0.980793,-1.26814 -0.418726,-1.340767 0.790457,-2.458263 1.098429,-3.441705 2.197398,-2.817485 0.775994,-4.227289 0.885132,-5.081455 0.08776,-0.226209 0.175106,-0.44462 0.260497,-0.653726 0,0 -1.165103,1.078816 -2.25,1.064453 -1.0849,-0.01452 -1.404542,-0.463931 -2.542969,-1.316406 z m 1.798828,4.224609 c 0.362358,-0.01854 0.407765,0.559392 0.216797,1.561768 -0.05126,0.269082 -0.28979,0.816874 -0.652127,1.279835 -0.503427,0.643234 -2.309573,1.46394 -3.02228,1.682323 -0.631491,0.193499 -1.398009,0.254482 -1.651521,0.09631 -0.244442,-0.152511 -0.277791,-0.384347 -0.306884,-0.729614 -0.01269,-0.150551 -0.412601,-0.575207 -0.222022,-0.547314 0.663659,0.09714 2.378737,-0.482256 2.983741,-0.800342 0.56678,-0.297988 1.581505,-1.278753 2.349609,-2.410156 l 0.002,-0.002 c 0.118376,-0.08414 0.219114,-0.126582 0.302734,-0.13086 z"
           sodipodi:nodetypes="ssscsscccssssssscccccccssssssssccscs"
           transform="matrix(0.26458,0,0,0.26458,0,-0.3772332)" />
        <path
           style="font-variation-settings:normal;opacity:1;vector-effect:none;fill:url(#skin-white-contour);fill-opacity:1;stroke:none;stroke-width:0.26458px;stroke-linecap:butt;stroke-linejoin:miter;stroke-miterlimit:4;stroke-dasharray:none;stroke-dashoffset:0;stroke-opacity:1;-inkscape-stroke:none;stop-color:#000000;stop-opacity:1"
           d="m -26.779149,11.77745 c 0.176732,0.25486 0.872007,0.559715 1.397376,0.498775 0.280835,-0.03258 0.692654,-0.228239 0.835028,-0.469422 0.179078,-0.30336 0.09686,-0.738519 0.09686,-0.738519 0,0 -0.04209,0.429967 -0.294009,0.722985 -0.127912,0.148778 -0.332496,0.202337 -0.656373,0.283091 -0.421906,0.105196 -1.093684,-0.148442 -1.291,-0.45597 -0.73782,-0.10956 -1.026757,-0.431434 -1.16715,-0.646356 0.08713,0.223274 0.166169,0.411789 0.396175,0.53028 0.199558,0.102806 0.438004,0.21766 0.683096,0.275136 z"
           id="path3075"
           sodipodi:nodetypes="csscssccscc" />
        <path
           style="font-variation-settings:normal;opacity:1;vector-effect:none;fill:url(#lip-white-2);fill-opacity:1;stroke:none;stroke-width:0.26458px;stroke-linecap:butt;stroke-linejoin:miter;stroke-miterlimit:4;stroke-dasharray:none;stroke-dashoffset:0;stroke-opacity:1;-inkscape-stroke:none;stop-color:#000000;stop-opacity:1"
           d="m -27.400201,11.042851 c -0.199296,-0.146343 -0.389648,0.0045 -0.147904,0.14704 0.241745,0.142512 0.347943,0.006 0.147904,-0.14704 z"
           id="path3077" />
        <path
           style="font-variation-settings:normal;opacity:1;vector-effect:none;fill:url(#lip-white-2);fill-opacity:1;stroke:none;stroke-width:0.26458px;stroke-linecap:butt;stroke-linejoin:miter;stroke-miterlimit:4;stroke-dasharray:none;stroke-dashoffset:0;stroke-opacity:1;-inkscape-stroke:none;stop-color:#000000;stop-opacity:1"
           d="m -25.833094,11.798651 c -0.230501,-0.08946 -0.375064,0.105704 -0.104564,0.180451 0.270494,0.07472 0.337526,-0.08471 0.104564,-0.180451 z"
           id="path3079" />
        <path
           style="font-variation-settings:normal;opacity:1;vector-effect:none;fill:url(#skin-white-3);fill-opacity:1;stroke:none;stroke-width:0.242566px;stroke-linecap:butt;stroke-linejoin:miter;stroke-miterlimit:4;stroke-dasharray:none;stroke-dashoffset:0;stroke-opacity:1;-inkscape-stroke:none;stop-color:#000000;stop-opacity:1"
           d="m -25.452318,10.39952 c -0.646285,-0.208925 -0.954749,0.225496 -0.984947,0.604767 -0.0205,0.257406 0.267146,0.516799 0.524158,0.586481 0.271434,0.07359 0.567965,0.06405 0.779822,-0.340197 0.210181,-0.401047 0.158194,-0.696778 -0.319033,-0.851051 z"
           id="path3081"
           sodipodi:nodetypes="sssss" />
        <path
           style="font-variation-settings:normal;opacity:1;vector-effect:none;fill:url(#skin-white-3);fill-opacity:1;stroke:none;stroke-width:0.242566px;stroke-linecap:butt;stroke-linejoin:miter;stroke-miterlimit:4;stroke-dasharray:none;stroke-dashoffset:0;stroke-opacity:1;-inkscape-stroke:none;stop-color:#000000;stop-opacity:1"
           d="m -27.202301,9.571928 c -0.526227,-0.1704092 -0.647806,0.3129642 -0.661333,0.57083 -0.01352,0.257866 0.01951,0.368322 0.246783,0.570153 0.206787,0.183635 0.594599,0.364279 0.608762,0.166888 0.01692,-0.235778 0.09066,-0.451255 0.185615,-0.575644 0.17899,-0.234471 0.09732,-0.5777111 -0.379827,-0.732227 z"
           id="path3083"
           sodipodi:nodetypes="ssssss" />
        <path
           style="font-variation-settings:normal;opacity:1;vector-effect:none;fill:url(#skin-white-3);fill-opacity:1;stroke:none;stroke-width:0.26458px;stroke-linecap:butt;stroke-linejoin:miter;stroke-miterlimit:4;stroke-dasharray:none;stroke-dashoffset:0;stroke-opacity:1;-inkscape-stroke:none;stop-color:#000000;stop-opacity:1"
           d="m -25.69356,9.7558935 c 0.324044,0.010118 0.436529,0.025172 0.570332,0.032768 0.187899,0.010668 0.575846,0.1732741 0.625335,0.3300545 0.04949,0.156781 -0.452722,-0.1456272 -0.696877,-0.1707853 -0.23658,-0.024378 -0.468484,-0.00538 -0.552047,-0.00538 -0.08356,0 -0.12812,-0.1770151 0.05326,-0.1866524 z"
           id="path3085"
           sodipodi:nodetypes="csssscc" />
        <path
           style="font-variation-settings:normal;opacity:1;vector-effect:none;fill:url(#skin-white-3);fill-opacity:1;stroke:none;stroke-width:0.26458px;stroke-linecap:butt;stroke-linejoin:miter;stroke-miterlimit:4;stroke-dasharray:none;stroke-dashoffset:0;stroke-opacity:1;-inkscape-stroke:none;stop-color:#000000;stop-opacity:1"
           d="m -26.621885,12.281542 c 0.04279,-0.08632 -0.04389,-0.15658 -0.143406,-0.220968 -0.107209,-0.06937 -0.131597,-0.08197 -0.211608,-0.198346 -0.09299,-0.135259 -0.138863,0.07905 -0.06227,0.190993 0.08022,0.117249 0.0987,0.117157 0.21082,0.192031 0.09714,0.06487 0.179138,0.0914 0.206464,0.03629 z"
           id="path3087"
           sodipodi:nodetypes="ssssss" />
        <path
           style="font-variation-settings:normal;opacity:1;vector-effect:none;fill:url(#skin-white-3);fill-opacity:1;stroke:none;stroke-width:0.26458px;stroke-linecap:butt;stroke-linejoin:miter;stroke-miterlimit:4;stroke-dasharray:none;stroke-dashoffset:0;stroke-opacity:1;-inkscape-stroke:none;stop-color:#000000;stop-opacity:1"
           d="m -27.111872,12.479689 c 0,0.119471 0.0856,0.157726 0.185664,0.235458 0.100059,0.07773 0.244852,0.09709 0.246047,0.02561 0.0019,-0.112611 -0.09857,-0.113854 -0.194762,-0.160183 -0.09806,-0.04723 -0.236949,-0.255024 -0.236949,-0.100894 z"
           id="path3089"
           sodipodi:nodetypes="ssssss" />
        <path
           style="font-variation-settings:normal;opacity:1;vector-effect:none;fill:url(#skin-white-3);fill-opacity:1;stroke:none;stroke-width:0.26458px;stroke-linecap:butt;stroke-linejoin:miter;stroke-miterlimit:4;stroke-dasharray:none;stroke-dashoffset:0;stroke-opacity:1;-inkscape-stroke:none;stop-color:#000000;stop-opacity:1"
           d="m -26.762809,13.121343 c -0.01902,-0.08082 -0.07422,-0.128288 -0.149181,-0.169651 -0.04172,-0.02302 -0.09132,-0.07346 -0.0816,0.03838 0.0066,0.07639 0.104537,0.127007 0.171656,0.18857 0.04764,0.0437 0.07813,0.02352 0.05912,-0.0573 z"
           id="path3091"
           sodipodi:nodetypes="ssssss" />
        <path
           style="font-variation-settings:normal;opacity:1;vector-effect:none;fill:url(#skin-white-3);fill-opacity:1;stroke:none;stroke-width:0.241198px;stroke-linecap:butt;stroke-linejoin:miter;stroke-miterlimit:4;stroke-dasharray:none;stroke-dashoffset:0;stroke-opacity:1;-inkscape-stroke:none;stop-color:#000000;stop-opacity:1"
           d="m -25.288314,12.492573 c -0.118263,0.02085 -0.278768,0.07291 -0.233469,0.136094 0.04139,0.05773 0.206438,0.0469 0.377176,0.0136 0.09429,-0.01839 0.43089,-0.121296 0.631262,-0.378144 0.151276,-0.193915 0.263776,-0.410113 0.267893,-0.486967 0.0092,-0.171648 -0.133979,-0.13427 -0.160299,-0.02561 -0.03076,0.126976 -0.09747,0.269147 -0.273792,0.429186 -0.20599,0.186966 -0.468274,0.287076 -0.608771,0.311846 z"
           id="path3093"
           sodipodi:nodetypes="ssssssss" />
        <path
           style="font-variation-settings:normal;opacity:1;vector-effect:none;fill:url(#skin-white-2);fill-opacity:1;stroke:none;stroke-width:0.290027px;stroke-linecap:butt;stroke-linejoin:miter;stroke-miterlimit:4;stroke-dasharray:none;stroke-dashoffset:0;stroke-opacity:1;-inkscape-stroke:none;stop-color:#000000;stop-opacity:1"
           d="m -25.733002,14.430757 c 0.209973,0.06652 0.365212,-0.112498 0.351001,-0.280078 -0.01422,-0.167577 -0.05543,-0.225288 -0.33136,-0.356389 -0.05348,-0.02541 -0.264181,-0.114563 -0.274103,0.125295 -0.0093,0.225976 0.02089,0.384673 0.25447,0.511172 z"
           id="path3095"
           sodipodi:nodetypes="cssscc" />
        <path
           style="font-variation-settings:normal;opacity:1;vector-effect:none;fill:url(#skin-white-2);fill-opacity:1;stroke:none;stroke-width:0.31058px;stroke-linecap:butt;stroke-linejoin:miter;stroke-miterlimit:4;stroke-dasharray:none;stroke-dashoffset:0;stroke-opacity:1;-inkscape-stroke:none;stop-color:#000000;stop-opacity:1"
           d="m -26.079208,13.882747 c -0.01904,-0.21198 -0.04912,-0.25351 -0.181525,-0.328918 -0.16826,-0.0958 -0.326173,-0.144899 -0.313427,0.07127 0.0068,0.1141 0.01987,0.315791 0.190138,0.492416 0.132102,0.137024 0.323859,-0.02276 0.304814,-0.234768 z"
           id="path3097"
           sodipodi:nodetypes="sssss" />
        <path
           style="font-variation-settings:normal;opacity:1;vector-effect:none;fill:url(#skin-white-3);fill-opacity:1;stroke:none;stroke-width:0.251083px;stroke-linecap:butt;stroke-linejoin:miter;stroke-miterlimit:4;stroke-dasharray:none;stroke-dashoffset:0;stroke-opacity:1;-inkscape-stroke:none;stop-color:#000000;stop-opacity:1"
           d="m -24.942827,13.108314 c -0.104334,0.02909 -0.424641,0.06666 -0.354534,0.185019 0.04196,0.07085 0.248963,0.03043 0.393129,-0.0067 0.08889,-0.02292 0.330294,-0.132917 0.554449,-0.284492 0.150866,-0.102018 0.221199,-0.206468 0.286787,-0.326575 0.06588,-0.120649 0.08865,-0.357986 -0.05088,-0.175622 -0.10337,0.13511 -0.222324,0.286129 -0.371404,0.391513 -0.180095,0.127308 -0.388168,0.19755 -0.457551,0.216898 z"
           id="path3099"
           sodipodi:nodetypes="sssssssss" />
        <path
           style="font-variation-settings:normal;opacity:1;vector-effect:none;fill:url(#skin-white-2);fill-opacity:1;stroke:none;stroke-width:0.322973px;stroke-linecap:butt;stroke-linejoin:miter;stroke-miterlimit:4;stroke-dasharray:none;stroke-dashoffset:0;stroke-opacity:1;-inkscape-stroke:none;stop-color:#000000;stop-opacity:1"
           d="m -26.383824,13.37562 c 0.295089,0.173804 0.272993,-0.01528 0.269252,-0.211789 -0.0033,-0.174773 -0.01286,-0.257067 -0.193899,-0.32229 -0.145006,-0.05224 -0.26523,0.06534 -0.26523,0.237036 0,0.171681 0.08161,0.249867 0.189877,0.297043 z"
           id="path3101"
           sodipodi:nodetypes="csssc" />
        <path
           style="font-variation-settings:normal;opacity:1;vector-effect:none;fill:url(#skin-white-2);fill-opacity:1;stroke:none;stroke-width:0.348207px;stroke-linecap:butt;stroke-linejoin:miter;stroke-miterlimit:4;stroke-dasharray:none;stroke-dashoffset:0;stroke-opacity:1;-inkscape-stroke:none;stop-color:#000000;stop-opacity:1"
           d="m -25.717837,13.08391 c -0.259589,-0.09398 -0.307237,0.07763 -0.293477,0.214207 0.01376,0.13658 -0.0065,0.274259 0.271905,0.377165 0.278471,0.102904 0.27823,-0.168493 0.249253,-0.292657 -0.02897,-0.124171 -0.06843,-0.241064 -0.227681,-0.298715 z"
           id="path3103"
           sodipodi:nodetypes="ssccs" />
        <path
           style="font-variation-settings:normal;opacity:1;vector-effect:none;fill:url(#skin-white-3);fill-opacity:1;stroke:none;stroke-width:0.322973px;stroke-linecap:butt;stroke-linejoin:miter;stroke-miterlimit:4;stroke-dasharray:none;stroke-dashoffset:0;stroke-opacity:1;-inkscape-stroke:none;stop-color:#000000;stop-opacity:1"
           d="m -26.543073,13.010918 c -0.01076,0.07674 0.02596,0.219968 0.104996,0.264973 0.190692,0.108598 0.110363,-0.05585 0.109762,-0.131341 -5.96e-4,-0.07551 0.150953,-0.144382 -0.06555,-0.249221 -0.06794,-0.03291 -0.138444,0.03886 -0.149204,0.115589 z"
           id="path3105"
           sodipodi:nodetypes="sssss" />
        <path
           style="font-variation-settings:normal;opacity:1;vector-effect:none;fill:url(#skin-white-3);fill-opacity:1;stroke:none;stroke-width:0.323614px;stroke-linecap:butt;stroke-linejoin:miter;stroke-miterlimit:4;stroke-dasharray:none;stroke-dashoffset:0;stroke-opacity:1;-inkscape-stroke:none;stop-color:#000000;stop-opacity:1"
           d="m -25.95738,13.233697 c -0.0011,0.08792 0.02293,0.216683 0.188833,0.299992 0.141521,0.07106 0.08668,-0.08459 0.07079,-0.162575 -0.02182,-0.10706 0.07032,-0.124217 -0.08305,-0.213429 -0.09826,-0.05715 -0.174298,-0.09636 -0.17656,0.07603 z"
           id="path3107"
           sodipodi:nodetypes="ssssss" />
        <path
           style="font-variation-settings:normal;opacity:1;vector-effect:none;fill:url(#skin-white-3);fill-opacity:1;stroke:none;stroke-width:0.31058px;stroke-linecap:butt;stroke-linejoin:miter;stroke-miterlimit:4;stroke-dasharray:none;stroke-dashoffset:0;stroke-opacity:1;-inkscape-stroke:none;stop-color:#000000;stop-opacity:1"
           d="m -26.349707,13.988434 c 0.134281,0.06731 0.05701,-0.0228 0.07528,-0.145628 0.02514,-0.16904 0.0902,-0.154655 -0.06534,-0.258601 -0.03104,-0.02074 -0.175779,-0.02636 -0.170076,0.0793 0.0057,0.105655 0.06452,0.276995 0.160139,0.324934 z"
           id="path3109"
           sodipodi:nodetypes="ssssss" />
        <path
           style="font-variation-settings:normal;opacity:1;vector-effect:none;fill:url(#skin-white-3);fill-opacity:1;stroke:none;stroke-width:0.290027px;stroke-linecap:butt;stroke-linejoin:miter;stroke-miterlimit:4;stroke-dasharray:none;stroke-dashoffset:0;stroke-opacity:1;-inkscape-stroke:none;stop-color:#000000;stop-opacity:1"
           d="m -25.911551,13.931835 c -0.0045,0.135255 0.03435,0.275323 0.201584,0.331264 0.134067,0.04484 0.08548,-0.02346 0.103119,-0.135162 0.0184,-0.11656 0.108568,-0.135991 -0.06836,-0.213435 -0.136073,-0.05957 -0.231835,-0.117925 -0.236342,0.01734 z"
           id="path3111"
           sodipodi:nodetypes="ssssss" />
        <path
           style="font-variation-settings:normal;opacity:1;vector-effect:none;fill:url(#skin-white-2);fill-opacity:1;stroke:none;stroke-width:0.299293px;stroke-linecap:butt;stroke-linejoin:miter;stroke-miterlimit:4;stroke-dasharray:none;stroke-dashoffset:0;stroke-opacity:1;-inkscape-stroke:none;stop-color:#000000;stop-opacity:1"
           d="m -26.257492,12.785613 c -0.112332,-0.04489 -0.271661,-0.04946 -0.245581,-0.166978 0.02338,-0.105363 0.142123,-0.299251 0.240017,-0.284772 0.07476,0.01106 0.114676,0.08724 0.133836,0.159098 0.03251,0.121913 0.0435,0.341513 -0.128272,0.292652 z"
           id="path3113"
           sodipodi:nodetypes="csssc" />
        <path
           style="font-variation-settings:normal;opacity:1;vector-effect:none;fill:url(#skin-white-3);fill-opacity:1;stroke:none;stroke-width:0.299293px;stroke-linecap:butt;stroke-linejoin:miter;stroke-miterlimit:4;stroke-dasharray:none;stroke-dashoffset:0;stroke-opacity:1;-inkscape-stroke:none;stop-color:#000000;stop-opacity:1"
           d="m -26.218264,12.539653 c -0.01089,-0.0659 -0.03191,-0.131652 -0.07591,-0.138791 -0.0461,-0.0075 -0.07475,0.01297 -0.109798,0.07963 -0.06296,0.11977 -0.06173,0.180738 0.08179,0.211786 0.037,0.008 0.119474,-0.05852 0.10392,-0.152625 z"
           id="path3115"
           sodipodi:nodetypes="sssss" />
        <path
           style="font-variation-settings:normal;opacity:1;vector-effect:none;fill:url(#skin-white-2);fill-opacity:1;stroke:none;stroke-width:0.334579px;stroke-linecap:butt;stroke-linejoin:miter;stroke-miterlimit:4;stroke-dasharray:none;stroke-dashoffset:0;stroke-opacity:1;-inkscape-stroke:none;stop-color:#000000;stop-opacity:1"
           d="m -25.855863,12.998125 c 0.09894,0.05682 0.259811,0.02571 0.246229,-0.06824 -0.01379,-0.09542 -0.09497,-0.269894 -0.164054,-0.350159 -0.0606,-0.0704 -0.247929,-0.08576 -0.255664,0.121006 -0.0058,0.155297 0.07454,0.240569 0.173489,0.29739 z"
           id="path3117"
           sodipodi:nodetypes="ssssss" />
        <path
           style="font-variation-settings:normal;opacity:1;vector-effect:none;fill:url(#skin-white-3);fill-opacity:1;stroke:none;stroke-width:0.310809px;stroke-linecap:butt;stroke-linejoin:miter;stroke-miterlimit:4;stroke-dasharray:none;stroke-dashoffset:0;stroke-opacity:1;-inkscape-stroke:none;stop-color:#000000;stop-opacity:1"
           d="m -25.901658,12.585522 c -0.05299,-0.02425 -0.09393,0.03289 -0.09825,0.09775 -0.0043,0.06487 0.04125,0.185454 0.108806,0.222787 0.09328,0.05155 0.155128,0.01692 0.122745,-0.12148 -0.01439,-0.06152 -0.08031,-0.174813 -0.133301,-0.199061 z"
           id="path3119"
           sodipodi:nodetypes="scssss" />
        <path
           id="path3121"
           style="font-variation-settings:normal;opacity:1;vector-effect:none;fill:url(#skin-white-3);fill-opacity:1;stroke:none;stroke-width:2px;stroke-linecap:butt;stroke-linejoin:miter;stroke-miterlimit:4;stroke-dasharray:none;stroke-dashoffset:0;stroke-opacity:1;-inkscape-stroke:none;stop-color:#000000;stop-opacity:1"
           d="m 157.97927,49.32613 c -2.04633,2.632317 -3.26042,2.755576 -3.86507,2.759576 -0.99765,0.0066 -1.76783,0.364763 -2.41693,0.308825 -1.18386,-0.101992 -1.98584,0.501918 -1.78711,1.158203 0.21783,0.719378 0.69409,1.953305 3.01263,2.259093 1.27912,0.168701 1.72615,1.54812 3.95768,2.37002 1.81338,0.667888 4.78931,0.37678 6.06666,1.216301 2.84927,1.872632 4.8873,3.391134 7.03529,3.03154 2.14799,-0.359597 -0.12859,-4.889793 -1.04218,-5.694101 -2.29272,-2.018441 -3.0744,-3.643631 -3.13135,-5.498529 0.0334,-1.980144 -1.30595,-2.175746 -2.57686,-2.778881 -1.55293,-0.73697 -4.20396,-0.481173 -5.25276,0.867953 z"
           transform="matrix(0.13229,0,0,0.13229,-46.561675,1.700488)"
           sodipodi:nodetypes="scssssssscss" />
        <path
           style="font-variation-settings:normal;opacity:1;vector-effect:none;fill:url(#skin-white-3);fill-opacity:1;stroke:none;stroke-width:0.26458px;stroke-linecap:butt;stroke-linejoin:miter;stroke-miterlimit:4;stroke-dasharray:none;stroke-dashoffset:0;stroke-opacity:1;-inkscape-stroke:none;stop-color:#000000;stop-opacity:1"
           d="m -26.286437,9.5513639 c -0.0011,0.073269 -0.0245,0.069292 -0.106678,0.066629 -0.113514,-0.00368 -0.253745,-0.2187479 -0.44651,-0.3315163 -0.170208,-0.099573 -0.349881,-0.1009244 -0.442587,-0.1406873 -0.09037,-0.03876 0.293051,-0.1155312 0.513558,-0.00944 0.220377,0.1060286 0.483964,0.3032941 0.482217,0.4150102 z"
           id="path3123"
           sodipodi:nodetypes="sssssss" />
        <path
           style="font-variation-settings:normal;opacity:1;vector-effect:none;fill:url(#skin-white-1);fill-opacity:1;stroke:none;stroke-width:0.26458px;stroke-linecap:butt;stroke-linejoin:miter;stroke-miterlimit:4;stroke-dasharray:none;stroke-dashoffset:0;stroke-opacity:1;-inkscape-stroke:none;stop-color:#000000;stop-opacity:1"
           d="m -27.028141,12.792812 c 0.154131,0.09165 0.370107,0.165486 0.410747,0.121067 0.04064,-0.04442 0.02705,0.136203 0.01352,0.229165 -0.01693,0.11631 -0.09936,-0.106682 -0.195683,-0.163041 -0.09632,-0.05636 -0.235242,-0.111756 -0.235242,-0.111756 z"
           id="path3125"
           sodipodi:nodetypes="cssscc" />
        <path
           style="font-variation-settings:normal;opacity:1;vector-effect:none;fill:url(#skin-white-1);fill-opacity:1;stroke:none;stroke-width:0.26458px;stroke-linecap:butt;stroke-linejoin:miter;stroke-miterlimit:4;stroke-dasharray:none;stroke-dashoffset:0;stroke-opacity:1;-inkscape-stroke:none;stop-color:#000000;stop-opacity:1"
           d="m -27.09278,12.269983 c 0.140138,0.08205 0.503265,0.29009 0.548739,0.251398 0.04548,-0.03869 0.0343,0.153006 0.01008,0.196626 -0.03638,0.06553 -0.04127,-0.0167 -0.141577,-0.10881 -0.02851,-0.02618 -0.112429,-0.03928 -0.191718,-0.08695 -0.131351,-0.07896 -0.241803,-0.180059 -0.241803,-0.180059 z"
           id="path3127"
           sodipodi:nodetypes="csssscc" />
        <path
           style="font-variation-settings:normal;opacity:1;vector-effect:none;fill:url(#skin-white-contour);fill-opacity:1;stroke:none;stroke-width:0.13229px;stroke-linecap:butt;stroke-linejoin:miter;stroke-miterlimit:4;stroke-dasharray:none;stroke-dashoffset:0;stroke-opacity:1;-inkscape-stroke:none;stop-color:#000000;stop-opacity:1"
           d="m -25.96781,13.637303 c -0.0105,-0.108842 -0.01378,-0.151442 -0.09394,-0.172064 -0.08016,-0.02062 -0.09265,0.03167 -0.09265,0.100234 0,0.06857 0.05363,0.169642 0.111151,0.186712 0.05752,0.01707 0.08084,-0.05389 0.07543,-0.114882 z"
           id="path3129" />
        <path
           style="font-variation-settings:normal;opacity:1;vector-effect:none;fill:url(#skin-white-2);fill-opacity:1;stroke:none;stroke-width:0.291049px;stroke-linecap:butt;stroke-linejoin:miter;stroke-miterlimit:4;stroke-dasharray:none;stroke-dashoffset:0;stroke-opacity:1;-inkscape-stroke:none;stop-color:#000000;stop-opacity:1"
           d="m -25.819998,8.4288824 c -0.01272,0.1472846 -0.23563,0.5211008 -0.05551,0.6974322 0.222513,0.2178346 0.663575,0.011317 1.003536,-0.2431172 0.101295,-0.075811 0.264166,-0.030336 0.284322,-0.1185067 0.03135,-0.1371415 -9.5e-4,-0.2964376 0.0104,-0.5002979 0.01025,-0.1840836 0.01926,-0.2475018 -0.50539,-0.3834725 -0.573006,-0.1485032 -0.708737,0.2164195 -0.737358,0.5479621 z"
           id="path3131"
           sodipodi:nodetypes="ssssssss" />
      </g>
      <g
         id="g3187"
         inkscape:label="Head Male 1 DL"
         transform="matrix(1.5881219,0,0,1.5783219,83.415137,-42.661585)">
        <path
           style="font-variation-settings:normal;opacity:1;vector-effect:none;fill:url(#skin-white-contour);fill-opacity:1;stroke:none;stroke-width:0.269407px;stroke-linecap:butt;stroke-linejoin:miter;stroke-miterlimit:4;stroke-dasharray:none;stroke-dashoffset:0;stroke-opacity:1;-inkscape-stroke:none;stop-color:#000000;stop-opacity:1"
           d="m -27.970955,7.5823113 c -0.01651,0.4831775 0.123826,0.9945761 0.175065,1.1386789 0.05123,0.1441094 0.136363,0.2298251 0.23934,0.3747855 0.105594,0.1486469 6.26e-4,0.3057945 0.391341,0.4227775 0.390708,0.1169831 0.365452,0.00924 0.54658,-0.010769 0.423963,-0.046836 0.758521,-0.045872 0.956766,-0.1609793 0.384843,-0.2234524 0.521402,-0.3241258 0.68856,-0.6231386 0.114665,-0.2051141 0.667715,-0.3759221 0.849679,-0.6683981 0.152315,-0.2448215 0.319866,-0.6790484 0.323519,-1.0003225 0.0037,-0.3212741 -0.126121,-0.9157916 -0.499584,-1.2024016 -0.373464,-0.28661 -0.709762,-0.539581 -1.14789,-0.6065626 -0.438129,-0.066982 -1.057505,-0.051521 -1.363749,0.089983 -0.306244,0.141508 -0.781801,0.4517474 -0.974918,0.886439 -0.170501,0.3837846 -0.217568,0.6047631 -0.170924,0.9799729 0.0099,0.079414 -0.01097,0.2974727 -0.01379,0.3799345 z"
           id="path3135"
           sodipodi:nodetypes="sssssssscsssssss" />
        <path
           style="font-variation-settings:normal;display:inline;opacity:1;vector-effect:none;fill:url(#skin-white-3);fill-opacity:1;stroke:none;stroke-width:0.26458px;stroke-linecap:butt;stroke-linejoin:miter;stroke-miterlimit:4;stroke-dasharray:none;stroke-dashoffset:0;stroke-opacity:1;-inkscape-stroke:none;stop-color:#000000;stop-opacity:1"
           d="m -27.195439,5.7382244 c -0.520761,0.4016089 -0.660621,0.9664716 -0.63195,1.4722078 0.013,0.2292702 -0.03604,0.2706025 -0.03608,0.3805786 -4.7e-5,0.1433167 0.0096,0.3077659 0.04901,0.5449705 0.06239,0.3750696 0.172461,0.6546066 0.389883,0.8515129 0.03253,0.29581 0.2343,0.49793 0.759393,0.36768 0.512771,-0.0106 1.03054,-0.1449921 1.207045,-0.3487421 0.145324,-0.0809 0.200047,-0.2216663 0.443648,-0.4709563 0.178339,-0.18251 0.697105,-0.4049931 0.773898,-0.5561131 0.177907,-0.35011 0.42236,-0.8610868 0.173664,-1.5231568 -0.210969,-0.56163 -1.075804,-1.125754 -1.770608,-1.126489 -0.694803,-7.35e-4 -0.914039,0.066199 -1.357903,0.4085075 z"
           id="path3137"
           sodipodi:nodetypes="sssscccsssss" />
        <path
           style="font-variation-settings:normal;opacity:1;vector-effect:none;fill:url(#linearGradient3209);fill-opacity:1;stroke:none;stroke-width:0.26458px;stroke-linecap:butt;stroke-linejoin:miter;stroke-miterlimit:4;stroke-dasharray:none;stroke-dashoffset:0;stroke-opacity:1;-inkscape-stroke:none;stop-color:#000000;stop-opacity:1"
           d="m -26.645939,8.1828599 c -0.04368,0.3865546 0.280166,0.5379465 0.390494,0.551113 0.260961,0.031143 0.435223,-0.062194 0.559133,-0.1657992 0.160062,-0.1338333 0.228968,-0.2405865 0.222665,-0.3098581 -0.0041,-0.044663 -0.0056,-0.089654 -7.6e-4,-0.1345236 0.0039,-0.035732 0.01083,-0.071273 0.02036,-0.1061251 0.105947,-0.3870773 0.532576,-0.6891965 0.643991,-0.2225164 0.02694,0.1128345 -0.170298,0.3101338 -0.307857,0.541907 -0.04809,0.081033 -0.09172,0.2028676 -0.112032,0.2764384 -0.06427,0.2328235 -0.186476,0.3001893 -0.270563,0.3935263 -0.11472,0.1273427 -0.41927,0.2048316 -0.624883,0.2431838 -0.461449,0.086072 -0.762509,0.039209 -0.889325,-0.092694 -0.126816,-0.1319024 -0.301672,-0.067488 -0.401284,-0.1004977 -0.143983,-0.047714 -0.25354,-0.3792444 -0.287277,-0.4450042 -0.05106,-0.099534 -0.182659,-0.5561478 -0.153981,-0.7248788 0.05104,0.2690149 0.03904,0.2916835 0.153024,0.3212847 0.173489,0.045055 0.235788,-0.3192932 0.213511,-0.2015064 -0.02148,0.1188218 -0.259475,0.4282979 0.06766,0.5035775 0.236591,0.054443 0.587893,-0.039133 0.777139,-0.3276291 z"
           id="path3139"
           sodipodi:nodetypes="cssssssssssssscscscc" />
        <path
           style="font-variation-settings:normal;opacity:1;vector-effect:none;fill:url(#skin-white-1);fill-opacity:1;stroke:none;stroke-width:0.26458px;stroke-linecap:butt;stroke-linejoin:miter;stroke-miterlimit:4;stroke-dasharray:none;stroke-dashoffset:0;stroke-opacity:1;-inkscape-stroke:none;stop-color:#000000;stop-opacity:1"
           d="m -27.221721,8.6528352 -0.10285,-0.031522 0.07315,-0.1439492 0.08346,0.014033 z"
           id="path3141"
           sodipodi:nodetypes="ccccc" />
        <path
           style="font-variation-settings:normal;opacity:1;vector-effect:none;fill:url(#skin-white-2);fill-opacity:1;stroke:none;stroke-width:0.243332px;stroke-linecap:butt;stroke-linejoin:miter;stroke-miterlimit:4;stroke-dasharray:none;stroke-dashoffset:0;stroke-opacity:1;-inkscape-stroke:none;stop-color:#000000;stop-opacity:1"
           d="m -24.982563,7.7020329 c 0.184349,-0.1256647 0.316881,-0.085726 0.54372,-0.118408 0.22684,-0.032682 0.219347,0.00558 0.402079,-0.066671 -0.04785,0.2357447 -0.124246,0.3405868 -0.193981,0.4674068 -0.06973,0.1268197 -0.651389,0.130162 -0.651389,0.130162 0,0 0.08174,-0.4426721 -0.100429,-0.4124898 z"
           id="path3143"
           sodipodi:nodetypes="cscscc" />
        <path
           style="font-variation-settings:normal;opacity:1;vector-effect:none;fill:url(#skin-white-1);fill-opacity:1;stroke:none;stroke-width:0.26458px;stroke-linecap:butt;stroke-linejoin:miter;stroke-miterlimit:4;stroke-dasharray:none;stroke-dashoffset:0;stroke-opacity:1;-inkscape-stroke:none;stop-color:#000000;stop-opacity:1"
           d="m -27.374379,8.9295221 c 0,0 0.114164,0.014663 0.117117,-0.056099 0.0022,-0.051841 0.03055,-0.0664 0.08255,-0.051723 0.04613,0.013021 0.237933,0.030861 0.211421,0.1509234 -0.01608,0.072817 0.340399,0.2239744 0.340399,0.2239744 0,0 0.585232,-0.053565 0.78623,-0.1126048 0.223582,-0.065673 0.325472,-0.1624718 0.471476,-0.3374685 0.08628,-0.1034075 0.163194,-0.2783927 0.202474,-0.4279542 0.01322,-0.05034 0.128106,-0.1695521 0.295122,-0.2858254 0.100649,-0.070072 0.269147,0.049127 0.416643,-0.013903 0.09646,-0.041221 0.142287,-0.2077691 0.287339,-0.2587488 -0.01224,0.096015 0.05131,0.041699 -0.05532,0.2145888 -0.114768,0.1860794 -0.711448,0.49206 -0.758556,0.5490786 -0.181742,0.2199804 -0.33553,0.5191995 -0.758611,0.7012377 -0.433978,0.1867266 -0.89922,0.1365256 -0.89922,0.1365256 0,0 -0.250078,0.086605 -0.50983,0.012419 -0.259751,-0.074187 -0.270398,-0.3099749 -0.270398,-0.3099749 -0.08314,-0.073656 -0.212989,-0.1553874 -0.312074,-0.5327572 0.138376,0.2039167 0.180717,0.3477158 0.353238,0.3983156 z"
           id="path3145"
           sodipodi:nodetypes="cssscssssscssscscccc" />
        <path
           style="font-variation-settings:normal;opacity:1;vector-effect:none;fill:url(#skin-white-4);fill-opacity:1;stroke:none;stroke-width:0.164786px;stroke-linecap:butt;stroke-linejoin:miter;stroke-miterlimit:4;stroke-dasharray:none;stroke-dashoffset:0;stroke-opacity:1;-inkscape-stroke:none;stop-color:#000000;stop-opacity:1"
           d="m -27.078368,7.8426566 c 0.0691,0.00916 -0.106864,0.2657414 -0.129633,0.3926083 -0.01903,0.1060607 -0.190288,0.032997 -0.159418,-0.089137 0.02925,-0.1157406 0.201524,-0.3150786 0.289053,-0.3034712 z"
           id="path3147"
           sodipodi:nodetypes="sssss" />
        <path
           style="font-variation-settings:normal;opacity:1;vector-effect:none;fill:url(#skin-white-1);fill-opacity:1;stroke:none;stroke-width:0.26458px;stroke-linecap:butt;stroke-linejoin:miter;stroke-miterlimit:4;stroke-dasharray:none;stroke-dashoffset:0;stroke-opacity:1;-inkscape-stroke:none;stop-color:#000000;stop-opacity:1"
           d="m -26.946433,8.4632335 c -0.03152,0.1557541 -0.07105,0.3133219 -0.07105,0.3133219 l -0.104498,-0.047509 0.06239,-0.2491473 z"
           id="path3149"
           sodipodi:nodetypes="ccccc" />
        <path
           style="font-variation-settings:normal;opacity:1;vector-effect:none;fill:url(#lip-white-2);fill-opacity:1;stroke:none;stroke-width:0.26458px;stroke-linecap:butt;stroke-linejoin:miter;stroke-miterlimit:4;stroke-dasharray:none;stroke-dashoffset:0;stroke-opacity:1;-inkscape-stroke:none;stop-color:#000000;stop-opacity:1"
           d="m -27.177265,8.616556 c -0.07358,-0.032408 -0.1329,-0.040378 -0.200393,-0.075085 -0.07241,-0.037233 -0.136486,-0.087188 -0.165635,-0.1337679 -0.02813,0.1808621 0.134508,0.4087261 0.3308,0.4215689 0.05463,0.087606 0.462193,0.1126252 0.694092,-0.014751 -0.172807,0.00342 -0.28654,-0.043277 -0.475716,-0.1193056 -0.107758,-0.043307 -0.138133,-0.058834 -0.183148,-0.078659 z"
           id="path3151"
           sodipodi:nodetypes="sscccss" />
        <path
           style="font-variation-settings:normal;opacity:1;vector-effect:none;fill:url(#skin-white-1);fill-opacity:1;stroke:none;stroke-width:0.25456px;stroke-linecap:butt;stroke-linejoin:miter;stroke-miterlimit:4;stroke-dasharray:none;stroke-dashoffset:0;stroke-opacity:1;-inkscape-stroke:none;stop-color:#000000;stop-opacity:1"
           d="m -27.185324,7.6832049 c 0,0 -0.199428,-0.2294666 -0.2991,-0.2603047 -0.10067,-0.031147 -0.168994,-0.095437 -0.192026,-0.073442 -0.04192,-0.04885 -0.04538,-0.1098915 -0.02752,-0.1843674 0,0 0.164067,-0.021035 0.253499,0.014204 0.08943,0.035238 0.303623,0.1850356 0.352493,0.3688116 0.03818,0.1435677 -0.08734,0.1350995 -0.08734,0.1350995 z"
           id="path3153"
           sodipodi:nodetypes="csccsscc" />
        <path
           style="font-variation-settings:normal;display:inline;opacity:1;vector-effect:none;fill:url(#linearGradient3211);fill-opacity:1;stroke:none;stroke-width:0.26458px;stroke-linecap:butt;stroke-linejoin:miter;stroke-miterlimit:4;stroke-dasharray:none;stroke-dashoffset:0;stroke-opacity:1;-inkscape-stroke:none;stop-color:#000000;stop-opacity:1"
           d="m -26.698496,6.7278114 c -0.508483,-0.2045081 -0.796137,-0.09297 -0.822506,-0.2323606 -0.02637,-0.1393906 0.125692,-0.4746835 0.391543,-0.7104242 0.234586,-0.208015 0.427145,-0.3785808 1.335556,-0.3356693 0.344068,0.016253 0.665829,0.1696783 0.949941,0.3426008 0.43828,0.266756 0.550819,0.6546311 0.425262,0.7215329 -0.179226,0.095502 -0.27325,0.1428312 -0.492801,0.2407683 -0.231758,0.1033825 -0.456909,0.5258709 -0.780615,0.4994098 -0.164023,-0.013408 -0.647451,-0.3814987 -1.00638,-0.5258577 z"
           id="path3155"
           sodipodi:nodetypes="sssssssss" />
        <path
           style="font-variation-settings:normal;opacity:1;vector-effect:none;fill:url(#skin-white-contour);fill-opacity:1;stroke:none;stroke-width:0.26458px;stroke-linecap:butt;stroke-linejoin:miter;stroke-miterlimit:4;stroke-dasharray:none;stroke-dashoffset:0;stroke-opacity:1;-inkscape-stroke:none;stop-color:#000000;stop-opacity:1"
           d="m -25.040325,7.4930791 c 0.226561,-0.018452 0.267048,0.230713 0.24728,0.3862141 -0.03362,0.2644516 -0.192251,0.2446817 -0.222363,0.2991727 -0.03011,0.054491 -0.01961,0.1062835 -0.08868,0.1448678 -0.06906,0.038584 -0.206179,-0.013582 -0.23636,-0.1599252 0.128185,0.1282062 0.227725,0.1235033 0.255109,0.00678 0.02518,-0.1073431 0.156985,-0.057213 0.20562,-0.228182 0.02621,-0.092153 0.02099,-0.1820366 -0.01225,-0.2659684 -0.03324,-0.083925 -0.180689,-0.1819802 -0.315511,-0.00592 -0.134822,0.1760558 -0.248423,0.1482648 -0.126899,0.045984 0.0768,-0.064643 0.06749,-0.2045702 0.294054,-0.223023 z"
           id="path3157"
           sodipodi:nodetypes="sssscssssss" />
        <path
           style="font-variation-settings:normal;opacity:1;vector-effect:none;fill:url(#skin-white-1);fill-opacity:1;stroke:none;stroke-width:0.225154px;stroke-linecap:butt;stroke-linejoin:miter;stroke-miterlimit:4;stroke-dasharray:none;stroke-dashoffset:0;stroke-opacity:1;-inkscape-stroke:none;stop-color:#000000;stop-opacity:1"
           d="m -25.081034,8.0236873 c 0.149703,0.012475 0.115004,-0.1740753 0.112477,-0.2407746 -0.0026,-0.066699 -0.09479,-0.1429022 -0.180498,-0.025809 -0.08571,0.117093 -0.109514,0.2538733 -0.06691,0.2858141 0.04261,0.031941 0.03469,-0.027584 0.134925,-0.019231 z"
           id="path3159"
           sodipodi:nodetypes="scssss" />
        <path
           style="font-variation-settings:normal;opacity:1;vector-effect:none;fill:url(#eye-white);fill-opacity:1;stroke:none;stroke-width:0.26559px;stroke-linecap:butt;stroke-linejoin:miter;stroke-miterlimit:4;stroke-dasharray:none;stroke-dashoffset:0;stroke-opacity:1;-inkscape-stroke:none;stop-color:#000000;stop-opacity:1"
           d="m -27.166515,7.6624915 c -0.127795,0.06056 -0.235826,0.089277 -0.381271,0.029407 -0.148615,-0.061174 -0.160793,-0.2198565 -0.133343,-0.3735526 5.98e-4,-0.081119 0.186895,-0.036509 0.267588,0.025704 0.09187,0.070831 0.181801,0.1949067 0.247026,0.3184416 z"
           id="path3161"
           sodipodi:nodetypes="cscsc" />
        <path
           style="font-variation-settings:normal;opacity:1;vector-effect:none;fill:url(#linearGradient3213);fill-opacity:1;stroke:none;stroke-width:0.394215px;stroke-linecap:butt;stroke-linejoin:miter;stroke-miterlimit:4;stroke-dasharray:none;stroke-dashoffset:0;stroke-opacity:1;-inkscape-stroke:none;stop-color:#000000;stop-opacity:1"
           d="m -27.097915,7.6113596 c -0.08801,-0.2190708 -0.249466,-0.3061608 -0.341219,-0.3506343 -0.09304,-0.045097 -0.228962,-0.091804 -0.312108,-0.1049523 0.108337,-0.075475 0.177208,-0.074648 0.367604,-0.00288 0.190391,0.07177 0.337089,0.2700345 0.285723,0.4584694 z"
           id="path3163"
           sodipodi:nodetypes="cscscc" />
        <ellipse
           style="fill:#000000;fill-opacity:1;stroke:none;stroke-width:0.135315;stroke-miterlimit:4;stroke-dasharray:none;stroke-opacity:1"
           id="ellipse3165"
           cx="-27.508408"
           cy="7.5111952"
           rx="0.11827295"
           ry="0.16746591" />
        <path
           style="font-variation-settings:normal;opacity:1;vector-effect:none;fill:url(#skin-white-1);fill-opacity:1;stroke:none;stroke-width:0.234116px;stroke-linecap:butt;stroke-linejoin:miter;stroke-miterlimit:4;stroke-dasharray:none;stroke-dashoffset:0;stroke-opacity:1;-inkscape-stroke:none;stop-color:#000000;stop-opacity:1"
           d="m -27.686125,7.3238822 c -0.09265,0.1770475 0.01598,0.3355859 0.169156,0.3779972 0.137895,0.03818 0.216482,0.073836 0.357281,-0.031314 -0.1611,0.038051 -0.219095,0.015666 -0.384737,-0.043927 -0.127937,-0.046028 -0.165286,-0.168682 -0.1417,-0.3027562 z"
           id="path3167"
           sodipodi:nodetypes="cscsc" />
        <path
           style="font-variation-settings:normal;opacity:1;vector-effect:none;fill:url(#skin-white-contour);fill-opacity:1;stroke:none;stroke-width:0.201251px;stroke-linecap:butt;stroke-linejoin:miter;stroke-miterlimit:4;stroke-dasharray:none;stroke-dashoffset:0;stroke-opacity:1;-inkscape-stroke:none;stop-color:#000000;stop-opacity:1"
           d="m -27.375918,8.4752684 c 0.122116,0.069736 0.315324,0.082843 0.43055,-0.040141 0.02011,-0.021464 0.07982,-0.1545168 -0.0286,-0.1017326 -0.0382,0.018596 -0.04977,0.062961 -0.174022,0.079619 -0.119289,0.015993 -0.271362,-0.053922 -0.290643,-0.1562001 -0.01899,-0.100738 0.116207,-0.3338913 0.34233,-0.5654527 -0.317431,0.1833697 -0.399782,0.397556 -0.426796,0.5522013 -0.01784,0.1021219 0.03826,0.1694993 0.147183,0.2317065 z"
           id="path3169"
           sodipodi:nodetypes="ssssscsss" />
        <path
           style="font-variation-settings:normal;opacity:1;vector-effect:none;fill:url(#skin-white-2);fill-opacity:1;stroke:none;stroke-width:0.26458px;stroke-linecap:butt;stroke-linejoin:miter;stroke-miterlimit:4;stroke-dasharray:none;stroke-dashoffset:0;stroke-opacity:1;-inkscape-stroke:none;stop-color:#000000;stop-opacity:1"
           d="m -27.289884,9.0652407 c -0.08814,0.017075 -0.04936,0.1278187 0.07522,0.1758773 0.12457,0.048059 0.353474,0.065337 0.259684,-0.037774 -0.10576,-0.1162702 -0.211848,-0.1619427 -0.334908,-0.1381037 z"
           id="path3171"
           sodipodi:nodetypes="ssss" />
        <path
           style="font-variation-settings:normal;opacity:1;vector-effect:none;fill:url(#linearGradient3215);fill-opacity:1;stroke:none;stroke-width:0.234116px;stroke-linecap:butt;stroke-linejoin:miter;stroke-miterlimit:4;stroke-dasharray:none;stroke-dashoffset:0;stroke-opacity:1;-inkscape-stroke:none;stop-color:#000000;stop-opacity:1"
           d="m -27.158326,7.6651678 c -0.0538,-0.1501896 -0.156458,-0.3040128 -0.29067,-0.3614745 -0.134212,-0.057462 -0.220958,-0.057475 -0.244279,0.01635 0.05313,-0.048156 0.09565,-0.00378 0.213209,0.041738 0.108734,0.042098 0.188583,0.1881501 0.32174,0.3033865 z"
           id="path3173"
           sodipodi:nodetypes="cscsc" />
        <path
           style="font-variation-settings:normal;opacity:1;vector-effect:none;fill:url(#skin-white-1);fill-opacity:1;stroke:none;stroke-width:0.25456px;stroke-linecap:butt;stroke-linejoin:miter;stroke-miterlimit:4;stroke-dasharray:none;stroke-dashoffset:0;stroke-opacity:1;-inkscape-stroke:none;stop-color:#000000;stop-opacity:1"
           d="m -26.100699,8.2204414 c 0,0 -0.199428,-0.2294666 -0.2991,-0.2603047 -0.10067,-0.031147 -0.271953,-0.023635 -0.294985,-0.00164 -0.04192,-0.04885 -0.04538,-0.1098915 -0.02752,-0.1843674 0,0 0.267026,-0.092837 0.356458,-0.057598 0.08943,0.035238 0.303623,0.1850356 0.352493,0.3688116 0.03818,0.1435677 -0.08734,0.1350995 -0.08734,0.1350995 z"
           id="path3175"
           sodipodi:nodetypes="csccsscc" />
        <path
           style="font-variation-settings:normal;opacity:1;vector-effect:none;fill:url(#eye-white);fill-opacity:1;stroke:none;stroke-width:0.26559px;stroke-linecap:butt;stroke-linejoin:miter;stroke-miterlimit:4;stroke-dasharray:none;stroke-dashoffset:0;stroke-opacity:1;-inkscape-stroke:none;stop-color:#000000;stop-opacity:1"
           d="m -26.375173,7.874087 c 0.151973,0.072328 0.279111,0.1457733 0.344336,0.2693087 -0.127795,0.06056 -0.287801,0.1478023 -0.432324,0.085739 -0.15841,-0.068027 -0.16921,-0.1443844 -0.191775,-0.3171552 0.07,-0.013703 0.141891,-0.1035104 0.279763,-0.037888 z"
           id="path3177"
           sodipodi:nodetypes="scscss" />
        <path
           style="font-variation-settings:normal;opacity:1;vector-effect:none;fill:url(#linearGradient3217);fill-opacity:1;stroke:none;stroke-width:0.394215px;stroke-linecap:butt;stroke-linejoin:miter;stroke-miterlimit:4;stroke-dasharray:none;stroke-dashoffset:0;stroke-opacity:1;-inkscape-stroke:none;stop-color:#000000;stop-opacity:1"
           d="m -25.969708,8.0439498 c -0.132853,-0.1484213 -0.312855,-0.219056 -0.404608,-0.2635295 -0.09304,-0.045097 -0.247533,-0.081572 -0.376857,0.01978 0.07666,-0.2198461 0.275613,-0.2098485 0.453605,-0.1112546 0.182006,0.1008173 0.365626,0.1723439 0.32786,0.3550054 z"
           id="path3179"
           sodipodi:nodetypes="cscscc" />
        <ellipse
           style="fill:#000000;fill-opacity:1;stroke:none;stroke-width:0.135315;stroke-miterlimit:4;stroke-dasharray:none;stroke-opacity:1"
           id="ellipse3181"
           cx="-26.423782"
           cy="8.0484314"
           rx="0.11827295"
           ry="0.16746591" />
        <path
           style="font-variation-settings:normal;opacity:1;vector-effect:none;fill:url(#skin-white-1);fill-opacity:1;stroke:none;stroke-width:0.234116px;stroke-linecap:butt;stroke-linejoin:miter;stroke-miterlimit:4;stroke-dasharray:none;stroke-dashoffset:0;stroke-opacity:1;-inkscape-stroke:none;stop-color:#000000;stop-opacity:1"
           d="m -26.654285,7.9094729 c -0.06488,0.1489292 0.06189,0.2813915 0.221941,0.329643 0.136993,0.041299 0.267535,0.017504 0.408334,-0.087646 -0.1611,0.038051 -0.271278,0.075049 -0.43579,0.012406 -0.164513,-0.062644 -0.176941,-0.1357722 -0.194485,-0.254403 z"
           id="path3183"
           sodipodi:nodetypes="cscsc" />
        <path
           style="font-variation-settings:normal;opacity:1;vector-effect:none;fill:url(#linearGradient3219);fill-opacity:1;stroke:none;stroke-width:0.234116px;stroke-linecap:butt;stroke-linejoin:miter;stroke-miterlimit:4;stroke-dasharray:none;stroke-dashoffset:0;stroke-opacity:1;-inkscape-stroke:none;stop-color:#000000;stop-opacity:1"
           d="m -26.022648,8.146072 c -0.0538,-0.1501896 -0.207511,-0.2476805 -0.341723,-0.3051422 -0.134212,-0.057462 -0.221595,0.00673 -0.297064,0.064704 0.08802,-0.024305 0.148431,-0.052133 0.265994,-0.00662 0.108734,0.042098 0.239636,0.1318178 0.372793,0.2470542 z"
           id="path3185"
           sodipodi:nodetypes="cscscc" />
      </g>
      <g
         id="g3205"
         inkscape:label="Arm2 Male DL"
         transform="matrix(2,0,0,2,93.123349,-88.821042)">
        <path
           style="font-variation-settings:normal;display:inline;opacity:1;vector-effect:none;fill:url(#skin-white-contour);fill-opacity:1;stroke:none;stroke-width:0.275393px;stroke-linecap:butt;stroke-linejoin:miter;stroke-miterlimit:4;stroke-dasharray:none;stroke-dashoffset:0;stroke-opacity:1;-inkscape-stroke:none;stop-color:#000000;stop-opacity:1"
           d="m -24.362756,32.731659 c 0.197749,0.303406 -0.126877,0.590264 -0.08492,1.282046 0.04564,0.752562 0.301908,1.002352 0.301908,1.002352 0,0 -0.198641,0.401448 -0.133254,0.750201 0.06539,0.348754 0.122178,0.776255 0.154755,1.004096 0.05141,0.359617 -0.113565,0.315982 -0.134631,0.632967 -0.02553,0.38415 0.361104,0.813413 0.907766,0.540845 0.332713,-0.165893 0.465942,-0.354724 0.471131,-0.686868 0.0024,-0.147817 -0.157297,-0.367916 -0.129322,-0.578743 0.05749,-0.433216 0.280155,-1.074204 0.209095,-1.374742 -0.05927,-0.250712 -0.12251,-0.428342 -0.12251,-0.428342 -0.05042,-0.573291 0.336287,-0.74968 0.293535,-1.316739 -0.03949,-0.52389 -0.177936,-0.504525 -0.173072,-0.75853 0.07016,-0.158285 0.13305,-0.325547 0.08912,-0.623927 -0.06941,-0.471359 -0.319679,-0.583748 -0.500349,-0.673164 -0.333667,-0.165135 -0.601164,-0.05074 -0.939945,0.20375 -0.345694,0.25967 -0.407051,0.721401 -0.2093,1.024798 z"
           id="path3189"
           sodipodi:nodetypes="cscssssssscscssscc" />
        <path
           style="font-variation-settings:normal;opacity:1;vector-effect:none;fill:url(#skin-white-1);fill-opacity:1;stroke:none;stroke-width:0.275393px;stroke-linecap:butt;stroke-linejoin:miter;stroke-miterlimit:4;stroke-dasharray:none;stroke-dashoffset:0;stroke-opacity:1;-inkscape-stroke:none;stop-color:#000000;stop-opacity:1"
           d="m -23.170286,36.787007 c 0.113032,0.274473 0.134216,0.261727 0.139193,0.470911 0.005,0.209232 -0.06095,0.404985 -0.481529,0.604977 -0.401867,0.191096 -0.619976,-0.32503 -0.615379,-0.452407 0.0046,-0.127376 0.223736,-0.461299 0.165008,-0.677334 -0.07003,-0.381203 -0.146341,-0.839714 -0.173004,-1.08315 -0.02667,-0.243435 0.178742,-0.666793 0.178742,-0.666793 0,0 -0.327465,-0.281529 -0.332153,-0.925609 -0.0036,-0.50107 0.175139,-0.879924 0.164077,-1.156708 -0.127917,-0.302865 -0.395029,-0.436486 -0.362725,-0.736642 0.0178,-0.165372 0.465152,-0.788077 0.905749,-0.719782 0.440596,0.06829 0.678688,0.391597 0.721892,0.778479 0.03289,0.294531 -0.174423,0.510029 -0.12979,0.597276 0.110607,0.307471 0.237192,0.612535 0.201461,0.934327 -0.03551,0.319801 -0.36805,0.794877 -0.355167,1.116389 0,0 0.208953,0.332795 0.193522,0.5953 -0.01543,0.262506 -0.231741,1.045741 -0.219897,1.320766 z"
           id="path3191"
           sodipodi:nodetypes="cssccscscssscscsc" />
        <path
           style="font-variation-settings:normal;opacity:1;vector-effect:none;fill:url(#skin-white-2);fill-opacity:1;stroke:none;stroke-width:0.26458px;stroke-linecap:butt;stroke-linejoin:miter;stroke-miterlimit:4;stroke-dasharray:none;stroke-dashoffset:0;stroke-opacity:1;-inkscape-stroke:none;stop-color:#000000;stop-opacity:1"
           d="m -23.643285,31.422395 c -0.264371,-0.0012 -0.513626,0.221728 -0.660611,0.32685 -0.307777,0.220171 -0.176397,0.62745 -0.0058,0.784721 0.153812,0.141835 0.433611,0.421892 0.871192,0.262246 0.437581,-0.159645 0.587091,-0.624776 0.503871,-0.850244 -0.08615,-0.233413 -0.430495,-0.522271 -0.708605,-0.523573 z"
           id="path3193"
           sodipodi:nodetypes="sssssss" />
        <path
           style="font-variation-settings:normal;opacity:1;vector-effect:none;fill:url(#skin-white-3);fill-opacity:1;stroke:none;stroke-width:0.311626px;stroke-linecap:butt;stroke-linejoin:miter;stroke-miterlimit:4;stroke-dasharray:none;stroke-dashoffset:0;stroke-opacity:1;-inkscape-stroke:none;stop-color:#000000;stop-opacity:1"
           d="m -23.128205,31.865904 c -0.166096,-0.270886 -0.329144,-0.329151 -0.501199,-0.338763 -0.172053,-0.0096 -0.480757,0.02833 -0.549754,0.31029 -0.06344,0.259261 0.157145,0.232611 0.321679,0.355406 0.201235,0.150184 0.23027,0.397884 0.623143,0.213586 0.217603,-0.102082 0.201634,-0.384765 0.106126,-0.540519 z"
           id="path3195"
           sodipodi:nodetypes="ssssss" />
        <path
           style="font-variation-settings:normal;opacity:1;vector-effect:none;fill:url(#skin-white-2);fill-opacity:1;stroke:none;stroke-width:0.284085px;stroke-linecap:butt;stroke-linejoin:miter;stroke-miterlimit:4;stroke-dasharray:none;stroke-dashoffset:0;stroke-opacity:1;-inkscape-stroke:none;stop-color:#000000;stop-opacity:1"
           d="m -23.853109,33.007568 c 0.114574,0.0019 0.434058,0.0026 0.611645,-0.07256 0.172989,0.129023 0.283347,0.529813 0.207857,0.855892 -0.134917,0.582774 -0.423256,1.113015 -0.673789,1.159654 -0.250535,0.04664 -0.485669,-0.785001 -0.466127,-1.045148 0.01954,-0.260146 0.09918,-0.925199 0.320414,-0.897833 z"
           id="path3197"
           sodipodi:nodetypes="ccssscc" />
        <path
           style="font-variation-settings:normal;opacity:1;vector-effect:none;fill:url(#skin-white-3);fill-opacity:1;stroke:none;stroke-width:0.255485px;stroke-linecap:butt;stroke-linejoin:miter;stroke-miterlimit:4;stroke-dasharray:none;stroke-dashoffset:0;stroke-opacity:1;-inkscape-stroke:none;stop-color:#000000;stop-opacity:1"
           d="m -23.75216,33.293887 c -0.201786,0.01015 -0.242486,0.258615 -0.271613,0.439076 -0.02913,0.18046 0.05775,0.549817 0.147901,0.593976 0.09016,0.04416 0.312025,-0.284244 0.342632,-0.479998 0.03061,-0.195755 0.0039,-0.564263 -0.21892,-0.553054 z"
           id="path3199"
           sodipodi:nodetypes="sssss" />
        <path
           style="font-variation-settings:normal;opacity:1;vector-effect:none;fill:url(#skin-white-2);fill-opacity:1;stroke:none;stroke-width:0.26458px;stroke-linecap:butt;stroke-linejoin:miter;stroke-miterlimit:4;stroke-dasharray:none;stroke-dashoffset:0;stroke-opacity:1;-inkscape-stroke:none;stop-color:#000000;stop-opacity:1"
           d="m -23.823907,35.147311 c 0.165916,0.07146 0.556463,-0.114394 0.556463,-0.114394 0,0 0.167491,0.233104 0.110489,0.488178 -0.057,0.255074 -0.240253,1.0192 -0.185031,1.242941 0.05522,0.223741 0.171898,0.353801 0.132116,0.510399 -0.03978,0.156598 -0.238088,0.477385 -0.563461,0.350737 -0.158221,-0.06159 -0.21076,-0.298393 -0.174288,-0.434733 0.03647,-0.136341 0.118276,-0.241555 0.102701,-0.424256 -0.01558,-0.182702 -0.141662,-0.752616 -0.160572,-0.925177 -0.01891,-0.172562 -0.02405,-0.473745 0.181583,-0.693695 z"
           id="path3201"
           sodipodi:nodetypes="ccssssccsc" />
        <path
           style="font-variation-settings:normal;opacity:1;vector-effect:none;fill:url(#skin-white-3);fill-opacity:1;stroke:none;stroke-width:0.26458px;stroke-linecap:butt;stroke-linejoin:miter;stroke-miterlimit:4;stroke-dasharray:none;stroke-dashoffset:0;stroke-opacity:1;-inkscape-stroke:none;stop-color:#000000;stop-opacity:1"
           d="m -23.745894,35.421888 c -0.03008,0.136387 -0.03222,0.648111 0.02368,0.836431 0.05591,0.188319 0.214377,-0.62774 0.204466,-0.814872 -0.0099,-0.187132 -0.212596,-0.111494 -0.228149,-0.02156 z"
           id="path3203" />
      </g>
    </g>
    <image
       width="16.933121"
       height="33.866241"
       preserveAspectRatio="none"
       xlink:href="../../../../../.local/share/Neverwinter%20Nights/portraits/po_ember_joy_m.tga"
       id="image21463"
       x="-19.632828"
       y="-26.875652" />
    <path
       style="font-variation-settings:normal;opacity:1;vector-effect:none;fill:url(#skin-white-contour);fill-opacity:1;stroke:none;stroke-width:0.242815px;stroke-linecap:butt;stroke-linejoin:miter;stroke-miterlimit:4;stroke-dasharray:none;stroke-dashoffset:0;stroke-opacity:1;-inkscape-stroke:none;stop-color:#000000;stop-opacity:1"
       d="m 2.3503854,-14.12768 c 0.1416635,1.48567 0.7006825,3.1842 1.2638713,4.3818834 0.5251667,1.116826 3.6744166,2.6168764 4.8523033,2.6168764 V -22.442112 c -2.0514418,0 -4.7865695,1.150601 -5.6271152,2.951115 -0.7469822,1.600094 -0.5998734,4.201176 -0.4890594,5.363317 z"
       id="path21580"
       sodipodi:nodetypes="ssccss" />
    <use
       x="0"
       y="0"
       xlink:href="#path21580"
       id="use22475"
       transform="matrix(-1,0,0,1,16.93312,0)"
       width="100%"
       height="100%" />
    <path
       style="font-variation-settings:normal;opacity:1;vector-effect:none;fill:url(#skin-white-contour);fill-opacity:1;stroke:none;stroke-width:0.26458px;stroke-linecap:butt;stroke-linejoin:miter;stroke-miterlimit:4;stroke-dasharray:none;stroke-dashoffset:0;stroke-opacity:1;-inkscape-stroke:none;stop-color:#000000;stop-opacity:1"
       d="m 8.46656,-7.4233229 c -0.9188784,0 -3.9434757,-1.3547774 -4.456907,-2.2851677 -0.5134312,-0.9303904 -1.1662578,-3.5534854 -1.2425441,-4.4946304 -0.2320343,-2.309759 -0.1100176,-4.828206 1.038627,-6.002304 0.9268314,-0.94737 2.8022167,-1.775374 4.6608245,-1.871954 -0.00291,1.646455 0,14.6540561 -4e-7,14.6540561 z"
       id="path23415"
       sodipodi:nodetypes="cscscc" />
    <use
       x="0"
       y="0"
       xlink:href="#path23415"
       id="use23766"
       transform="matrix(-1,0,0,1,16.930534,0)"
       width="100%"
       height="100%" />
  </g>
</svg>
